<?xml version="1.0" encoding="UTF-8"?>
<!DOCTYPE svg PUBLIC "-//W3C//DTD SVG 1.1//EN" "http://www.w3.org/Graphics/SVG/1.1/DTD/svg11.dtd">
<!-- Creator: CorelDRAW -->
<svg xmlns="http://www.w3.org/2000/svg" xml:space="preserve" width="100%" height="100%" style="shape-rendering:geometricPrecision; text-rendering:geometricPrecision; image-rendering:optimizeQuality; fill-rule:evenodd; clip-rule:evenodd"
viewBox="0 0 15.8 4.6"
 xmlns:xlink="http://www.w3.org/1999/xlink">
 <defs>
  <style type="text/css">
   <![CDATA[
    .fil2 {fill:white}
    .fil0 {fill:#A02721}
    .fil1 {fill:white;fill-rule:nonzero}
   ]]>
  </style>
 </defs>
 <g id="Слой_x0020_1">
  <metadata id="CorelCorpID_0Corel-Layer"/>
  <g id="_125223992">
   <path id="_125219672" class="fil0" d="M1.40211 0.04295l12.9958 0c0.55967,0 1.27158,-0.03191 1.27158,0.85709l0 2.79989c0,0.88901 -0.71335,0.85712 -1.27158,0.85712l-12.9958 0c-0.55823,0 -1.27158,0.0334 -1.27158,-0.85712l0 -2.79989c0,-0.89051 0.71191,-0.85709 1.27158,-0.85709z"/>
   <polygon id="_125222432" class="fil1" points="11.6371,3.90848 12.1912,2.45737 12.2315,2.35021 12.3454,2.35021 13.2429,2.35021 13.3607,2.35021 13.3989,2.46156 13.9491,3.89455 13.6164,3.89434 13.3248,3.14685 13.3247,3.89421 12.2705,3.89356 12.2705,3.18503 11.989,3.90703 "/>
   <path id="_125220992" class="fil2" d="M12.6968 0.84607c0.33078,-0.06571 0.65227,0.1492 0.71797,0.47995 0.06572,0.33075 -0.14918,0.65224 -0.47991,0.71799 -0.33077,0.0657 -0.65226,-0.14922 -0.71798,-0.47998 -0.06573,-0.33072 0.14921,-0.65223 0.47992,-0.71796z"/>
   <polygon id="_125221232" class="fil1" points="2.53738,1.86079 2.53738,2.75191 2.74482,2.75191 2.74482,2.05129 3.10465,2.05129 3.10465,2.75191 3.31208,2.75191 3.31208,1.86079 "/>
   <path id="_1252212321" class="fil1" d="M4.00424 1.83751c-0.06774,0 -0.13053,0.01164 -0.18839,0.03492 -0.05785,0.02329 -0.10795,0.05574 -0.15028,0.09737 -0.04233,0.04163 -0.07585,0.09102 -0.10054,0.14817 -0.0247,0.05715 -0.03704,0.12029 -0.03704,0.18944 0,0.06773 0.01234,0.13053 0.03704,0.18838 0.02469,0.05786 0.05821,0.10795 0.10054,0.15029 0.04233,0.04233 0.09243,0.07514 0.15028,0.09842 0.05786,0.02329 0.12065,0.03493 0.18839,0.03493 0.06773,0 0.13053,-0.01164 0.18838,-0.03493 0.05786,-0.02328 0.10795,-0.05609 0.15028,-0.09842 0.04234,-0.04234 0.07585,-0.09243 0.10055,-0.15029 0.02469,-0.05785 0.03704,-0.12065 0.03704,-0.18838 0,-0.06915 -0.01235,-0.13229 -0.03704,-0.18944 -0.0247,-0.05715 -0.05821,-0.10654 -0.10055,-0.14817 -0.04233,-0.04163 -0.09242,-0.07408 -0.15028,-0.09737 -0.05785,-0.02328 -0.12065,-0.03492 -0.18838,-0.03492zm0 0.75565c-0.08185,0 -0.14641,-0.02575 -0.19368,-0.07726 -0.04727,-0.0515 -0.07091,-0.1203 -0.07091,-0.20637 0,-0.0508 0.00776,-0.0942 0.02329,-0.13018 0.01552,-0.03598 0.03563,-0.06562 0.06032,-0.0889 0.0247,-0.02328 0.05292,-0.04022 0.08467,-0.0508 0.03175,-0.01058 0.06385,-0.01587 0.09631,-0.01587 0.03245,0 0.06456,0.00529 0.09631,0.01587 0.03175,0.01058 0.05997,0.02752 0.08466,0.0508 0.0247,0.02328 0.04481,0.05292 0.06033,0.0889 0.01552,0.03598 0.02328,0.07938 0.02328,0.13018 0,0.08607 -0.02363,0.15487 -0.07091,0.20637 -0.04727,0.05151 -0.11183,0.07726 -0.19367,0.07726z"/>
   <polygon id="_12522123212" class="fil1" points="4.69639,1.86079 4.69639,2.75191 4.90383,2.75191 4.90383,2.05129 5.26366,2.05129 5.26366,2.75191 5.47109,2.75191 5.47109,1.86079 "/>
   <polygon id="_125221232123" class="fil1" points="5.73356,1.86079 5.73356,2.81964 6.34316,2.23333 6.34316,2.75191 6.5506,2.75191 6.5506,1.78036 5.941,2.36668 5.941,1.86079 "/>
   <polygon id="_1252212321234" class="fil1" points="7.4269,2.05129 7.4269,1.86079 6.69876,1.86079 6.69876,2.05129 6.95911,2.05129 6.95911,2.75191 7.16655,2.75191 7.16655,2.05129 "/>
   <g>
    <polygon id="_125222768" class="fil2" points="10.5273,2.97971 9.16574,2.97971 9.16715,1.66176 8.89141,1.66038 9.89023,1.13935 10.7767,1.68177 10.5261,1.67931 "/>
    <g>
     <rect id="_125218568" class="fil0" x="9.47156" y="1.80128" width="0.241656" height="0.315204"/>
     <rect id="_125223536" class="fil0" x="9.95487" y="1.80128" width="0.241656" height="0.315204"/>
    </g>
    <g>
     <rect id="_125222744" class="fil0" x="9.47156" y="2.36865" width="0.241656" height="0.315204"/>
     <rect id="_125225048" class="fil0" x="9.95487" y="2.36865" width="0.241656" height="0.315204"/>
    </g>
   </g>
   <path id="_125221952" class="fil1" d="M11.994 1.22962c-0.09984,0.01735 -0.17764,0.03914 -0.24209,0.06235 -0.06249,0.0225 -0.11766,0.04881 -0.16845,0.07361 -0.2836,0.13848 -0.28012,0.24286 -0.27067,0.52598 0.00374,0.11233 0.00829,0.2484 0.00074,0.41808 -0.0166,0.37319 -0.13897,0.67475 -0.3472,0.89284 -0.21233,0.2224 -0.51091,0.35553 -0.87482,0.38706 -0.28899,0.02504 -0.5502,0.00058 -0.7783,-0.06575 -0.29287,-0.08517 -0.53004,-0.2394 -0.70095,-0.44684 -0.17125,-0.20788 -0.27497,-0.4675 -0.30057,-0.76301 -0.01939,-0.22374 0.00625,-0.46871 0.0816,-0.7278 0.01272,-0.04375 0.02725,-0.08602 0.04347,-0.1268 0.20933,-0.5262 0.68307,-0.76441 1.25043,-0.82741 0.54644,-0.06068 1.1816,0.04338 1.74198,0.20634 0.20762,0.06038 0.40541,0.12899 0.58475,0.20033l0.32812 0.13054 -0.34804 0.06048zm-0.49804 -0.04372c0.04482,-0.02189 0.09361,-0.04514 0.1549,-0.06879 -0.08958,-0.0305 -0.18224,-0.05984 -0.27715,-0.08744 -0.53847,-0.15659 -1.14632,-0.25685 -1.66464,-0.1993 -0.49743,0.05523 -0.91031,0.25788 -1.08715,0.70241 -0.01373,0.03452 -0.02618,0.0708 -0.03723,0.10882 -0.068,0.23382 -0.09118,0.45432 -0.07378,0.65516 0.02211,0.25516 0.11018,0.47753 0.25525,0.65363 0.14544,0.17653 0.34926,0.30836 0.60251,0.382 0.20392,0.0593 0.44061,0.0809 0.70566,0.05793 0.31463,-0.02726 0.56971,-0.13916 0.74746,-0.32534 0.17508,-0.18337 0.27817,-0.44127 0.29252,-0.76394 0.00726,-0.16329 0.00287,-0.29473 -0.00074,-0.40322 -0.0126,-0.37758 -0.01725,-0.51677 0.38239,-0.71192z"/>
  </g>
 </g>
</svg>
