<?xml version="1.0" encoding="UTF-8"?>
<!DOCTYPE svg PUBLIC "-//W3C//DTD SVG 1.1//EN" "http://www.w3.org/Graphics/SVG/1.1/DTD/svg11.dtd">
<!-- Creator: CorelDRAW -->
<svg xmlns="http://www.w3.org/2000/svg" xml:space="preserve" width="100%" height="100%" style="shape-rendering:geometricPrecision; text-rendering:geometricPrecision; image-rendering:optimizeQuality; fill-rule:evenodd; clip-rule:evenodd"
viewBox="0 0 15.8 4.6"
 xmlns:xlink="http://www.w3.org/1999/xlink">
 <defs>
  <style type="text/css">
   <![CDATA[
    .fil1 {fill:white}
    .fil0 {fill:#A02721}
    .fil2 {fill:white;fill-rule:nonzero}
   ]]>
  </style>
 </defs>
 <g id="Слой_x0020_1">
  <metadata id="CorelCorpID_0Corel-Layer"/>
  <g id="_125217920">
   <path id="_127125608" class="fil0" d="M1.40211 0.04295l12.9958 0c0.55967,0 1.27158,-0.03191 1.27158,0.85709l0 2.79989c0,0.88901 -0.71335,0.85712 -1.27158,0.85712l-12.9958 0c-0.55823,0 -1.27158,0.0334 -1.27158,-0.85712l0 -2.79989c0,-0.89051 0.71191,-0.85709 1.27158,-0.85709z"/>
   <g>
    <polygon id="_125217416" class="fil1" points="3.56284,3.59455 1.51039,3.59455 1.51252,1.6079 1.09688,1.60581 2.60248,0.82042 3.93867,1.63805 3.56103,1.63435 "/>
    <g>
     <rect id="_127118480" class="fil0" x="1.97138" y="1.81821" width="0.364269" height="0.475133"/>
     <rect id="_127128056" class="fil0" x="2.69991" y="1.81821" width="0.364269" height="0.475133"/>
    </g>
    <g>
     <rect id="_125225840" class="fil0" x="1.97138" y="2.67345" width="0.364269" height="0.475133"/>
     <rect id="_125226032" class="fil0" x="2.69991" y="2.67345" width="0.364269" height="0.475133"/>
    </g>
   </g>
   <polygon id="_125215928" class="fil2" points="4.42069,2.73191 4.62813,2.73191 4.62813,2.36149 4.99643,2.36149 4.99643,2.73191 5.20386,2.73191 5.20386,1.84079 4.99643,1.84079 4.99643,2.17099 4.62813,2.17099 4.62813,1.84079 4.42069,1.84079 "/>
   <path id="_1252159281" class="fil2" d="M6.10556 2.40171c-0.01129,0.0254 -0.0247,0.04868 -0.04022,0.06985 -0.01552,0.02117 -0.03245,0.03881 -0.0508,0.05292 -0.01693,0.01411 -0.03739,0.02575 -0.06138,0.03492 -0.02399,0.00917 -0.0508,0.01376 -0.08044,0.01376 -0.02822,0 -0.05609,-0.00459 -0.0836,-0.01376 -0.02752,-0.00917 -0.05292,-0.02363 -0.0762,-0.04339 -0.02329,-0.01976 -0.04234,-0.04445 -0.05715,-0.07408 -0.01482,-0.02964 -0.02294,-0.06492 -0.02435,-0.10584l0.63924 0 0 -0.03175c0,-0.01693 -0.00071,-0.0381 -0.00212,-0.0635 -0.00141,-0.0254 -0.00494,-0.05291 -0.01058,-0.08255 -0.00565,-0.02963 -0.01411,-0.05962 -0.0254,-0.08996 -0.01129,-0.03033 -0.02611,-0.05962 -0.04445,-0.08784 -0.03246,-0.04515 -0.0762,-0.08361 -0.13124,-0.11536 -0.05503,-0.03175 -0.12276,-0.04762 -0.2032,-0.04762 -0.06632,0 -0.12629,0.01164 -0.17991,0.03492 -0.05363,0.02329 -0.09913,0.05574 -0.13653,0.09737 -0.03739,0.04163 -0.06632,0.09172 -0.08678,0.15028 -0.02046,0.05857 -0.03069,0.12242 -0.03069,0.19156 0,0.08044 0.0127,0.14993 0.0381,0.20849 0.0254,0.05857 0.05891,0.10725 0.10054,0.14605 0.04163,0.03881 0.08925,0.06739 0.14287,0.08573 0.05363,0.01834 0.10795,0.02752 0.16299,0.02752 0.04939,0 0.10089,-0.00882 0.15451,-0.02646 0.05363,-0.01764 0.1016,-0.0448 0.14394,-0.08149 0.02399,-0.01976 0.04586,-0.0434 0.06561,-0.07091 0.01976,-0.02752 0.03669,-0.05468 0.0508,-0.08149l-0.17356 -0.09737zm-0.45932 -0.23495c0.01411,-0.04939 0.03951,-0.0889 0.0762,-0.11853 0.03669,-0.02964 0.08043,-0.04445 0.13123,-0.04445 0.0508,0 0.0949,0.01481 0.1323,0.04445 0.03739,0.02963 0.06173,0.06914 0.07302,0.11853l-0.41275 0z"/>
   <path id="_12521592812" class="fil2" d="M6.70246 2.62819c0.02258,0.02823 0.04727,0.05116 0.07408,0.06879 0.02681,0.01764 0.05221,0.03105 0.0762,0.04022 0.02399,0.00917 0.04621,0.01517 0.06668,0.01799 0.02046,0.00283 0.03704,0.00424 0.04974,0.00424 0.05221,0 0.10442,-0.01094 0.15663,-0.03281 0.05221,-0.02187 0.09843,-0.05327 0.13864,-0.09419 0.04022,-0.04093 0.07303,-0.09102 0.09843,-0.15029 0.0254,-0.05926 0.0381,-0.12629 0.0381,-0.20108 0,-0.07056 -0.01164,-0.13441 -0.03493,-0.19156 -0.02328,-0.05715 -0.05468,-0.10583 -0.09419,-0.14605 -0.03951,-0.04022 -0.08537,-0.07126 -0.13758,-0.09313 -0.05221,-0.02188 -0.10795,-0.03281 -0.16722,-0.03281 -0.04515,0 -0.09102,0.00882 -0.13758,0.02646 -0.04657,0.01764 -0.0889,0.04903 -0.127,0.09419l0 -0.09737 -0.20744 0 0 1.37584 0.20744 0 0 -0.58844zm0.23918 -0.62441c0.0381,0 0.07232,0.0074 0.10266,0.02222 0.03034,0.01482 0.05609,0.03528 0.07726,0.06138 0.02116,0.02611 0.03775,0.05645 0.04974,0.09102 0.01199,0.03457 0.01799,0.07161 0.01799,0.11113 0,0.0381 -0.006,0.07443 -0.01799,0.109 -0.01199,0.03458 -0.02858,0.06492 -0.04974,0.09102 -0.02117,0.02611 -0.04692,0.04657 -0.07726,0.06138 -0.03034,0.01482 -0.06456,0.02223 -0.10266,0.02223 -0.03245,0 -0.06385,-0.006 -0.09419,-0.01799 -0.03034,-0.012 -0.05715,-0.02964 -0.08043,-0.05292 -0.02329,-0.02328 -0.04198,-0.05256 -0.0561,-0.08784 -0.01411,-0.03528 -0.02116,-0.0762 -0.02116,-0.12277 0,-0.04798 0.00705,-0.09031 0.02116,-0.127 0.01412,-0.03669 0.03281,-0.06667 0.0561,-0.08996 0.02328,-0.02328 0.05009,-0.04092 0.08043,-0.05291 0.03034,-0.012 0.06174,-0.01799 0.09419,-0.01799z"/>
   <polygon id="_125215928123" class="fil2" points="7.55125,3.21663 7.78408,3.21663 8.49316,1.84079 8.26033,1.84079 8.01056,2.34244 7.7481,1.84079 7.49833,1.84079 7.89415,2.56681 "/>
   <polygon id="_1252159281234" class="fil2" points="8.51856,2.73191 8.77256,2.73191 9.03714,2.39959 9.29326,2.73191 9.54303,2.73191 9.16203,2.24931 9.49011,1.84079 9.23611,1.84079 9.03714,2.10114 8.84029,1.84079 8.59476,1.84079 8.91226,2.24931 "/>
   <path id="_12521592812345" class="fil2" d="M10.1167 1.81751c-0.06774,0 -0.13053,0.01164 -0.18839,0.03492 -0.05785,0.02329 -0.10795,0.05574 -0.15028,0.09737 -0.04233,0.04163 -0.07585,0.09102 -0.10054,0.14817 -0.0247,0.05715 -0.03704,0.12029 -0.03704,0.18944 0,0.06773 0.01234,0.13053 0.03704,0.18838 0.02469,0.05786 0.05821,0.10795 0.10054,0.15029 0.04233,0.04233 0.09243,0.07514 0.15028,0.09842 0.05786,0.02329 0.12065,0.03493 0.18839,0.03493 0.06773,0 0.13053,-0.01164 0.18838,-0.03493 0.05786,-0.02328 0.10795,-0.05609 0.15028,-0.09842 0.04234,-0.04234 0.07585,-0.09243 0.10055,-0.15029 0.02469,-0.05785 0.03704,-0.12065 0.03704,-0.18838 0,-0.06915 -0.01235,-0.13229 -0.03704,-0.18944 -0.0247,-0.05715 -0.05821,-0.10654 -0.10055,-0.14817 -0.04233,-0.04163 -0.09242,-0.07408 -0.15028,-0.09737 -0.05785,-0.02328 -0.12065,-0.03492 -0.18838,-0.03492zm0 0.75565c-0.08185,0 -0.14641,-0.02575 -0.19368,-0.07726 -0.04727,-0.0515 -0.07091,-0.1203 -0.07091,-0.20637 0,-0.0508 0.00776,-0.0942 0.02329,-0.13018 0.01552,-0.03598 0.03563,-0.06562 0.06032,-0.0889 0.0247,-0.02328 0.05292,-0.04022 0.08467,-0.0508 0.03175,-0.01058 0.06385,-0.01587 0.09631,-0.01587 0.03245,0 0.06456,0.00529 0.09631,0.01587 0.03175,0.01058 0.05997,0.02752 0.08466,0.0508 0.0247,0.02328 0.04481,0.05292 0.06033,0.0889 0.01552,0.03598 0.02328,0.07938 0.02328,0.13018 0,0.08607 -0.02363,0.15487 -0.07091,0.20637 -0.04727,0.05151 -0.11183,0.07726 -0.19367,0.07726z"/>
   <polygon id="_125215928123456" class="fil2" points="10.7072,2.73191 10.9189,2.73191 11.0078,2.28529 11.2914,2.79964 11.575,2.28529 11.6639,2.73191 11.8756,2.73191 11.6597,1.76036 11.2914,2.43981 10.9231,1.76036 "/>
   <path id="_1252159281234567" class="fil2" d="M12.0365 1.84079l0 0.89112 0.20744 0 0 -0.89112 -0.20744 0zm-0.02963 -0.3683c0,0.0381 0.0127,0.06985 0.0381,0.09525 0.0254,0.0254 0.05715,0.0381 0.09525,0.0381 0.0381,0 0.06985,-0.0127 0.09525,-0.0381 0.0254,-0.0254 0.0381,-0.05715 0.0381,-0.09525 0,-0.0381 -0.0127,-0.06985 -0.0381,-0.09525 -0.0254,-0.0254 -0.05715,-0.0381 -0.09525,-0.0381 -0.0381,0 -0.06985,0.0127 -0.09525,0.0381 -0.0254,0.0254 -0.0381,0.05715 -0.0381,0.09525z"/>
   <path id="_12521592812345678" class="fil2" d="M13.1964 1.88101c-0.04516,-0.02822 -0.0889,-0.04586 -0.13124,-0.05292 -0.04233,-0.00705 -0.08255,-0.01058 -0.12065,-0.01058 -0.06067,0 -0.11888,0.00705 -0.17462,0.02117 -0.05574,0.01411 -0.11113,0.04727 -0.16616,0.09948 -0.05362,0.05221 -0.09102,0.1083 -0.11218,0.16827 -0.02117,0.05998 -0.03175,0.12101 -0.03175,0.1831 0,0.07337 0.01164,0.13758 0.03492,0.19261 0.02329,0.05504 0.05398,0.10231 0.09208,0.14182 0.04656,0.04798 0.09948,0.08255 0.15875,0.10372 0.05926,0.02116 0.1277,0.03175 0.20531,0.03175 0.03246,0 0.06915,-0.00388 0.11007,-0.01164 0.04092,-0.00777 0.08608,-0.02576 0.13547,-0.05398l0 -0.27305c-0.02822,0.04939 -0.06597,0.08714 -0.11324,0.11324 -0.04728,0.02611 -0.09631,0.03916 -0.14711,0.03916 -0.04092,0 -0.07761,-0.00741 -0.11007,-0.02223 -0.03245,-0.01481 -0.05997,-0.03527 -0.08255,-0.06138 -0.02258,-0.0261 -0.04022,-0.05644 -0.05292,-0.09102 -0.0127,-0.03457 -0.01905,-0.07161 -0.01905,-0.11112 0,-0.04657 0.00776,-0.08749 0.02329,-0.12277 0.01552,-0.03528 0.03563,-0.06491 0.06032,-0.0889 0.0247,-0.02399 0.05292,-0.04198 0.08467,-0.05397 0.03175,-0.012 0.06456,-0.01799 0.09842,-0.01799 0.05363,0 0.10302,0.01305 0.14817,0.03915 0.04516,0.02611 0.08185,0.06315 0.11007,0.11113l0 -0.27305z"/>
   <polygon id="_125215928123456789" class="fil2" points="14.0092,2.03129 14.0092,1.84079 13.2811,1.84079 13.2811,2.03129 13.5414,2.03129 13.5414,2.73191 13.7489,2.73191 13.7489,2.03129 "/>
   <path id="_12521592812345678910" class="fil2" d="M14.1574 2.73191l0.32385 0c0.04516,0 0.08996,-0.00318 0.13441,-0.00953 0.04445,-0.00635 0.08643,-0.02857 0.12594,-0.06667 0.01976,-0.01976 0.0381,-0.04727 0.05504,-0.08255 0.01693,-0.03528 0.0254,-0.07902 0.0254,-0.13123 0,-0.02681 -0.00424,-0.05786 -0.0127,-0.09314 -0.00847,-0.03528 -0.02752,-0.06914 -0.05715,-0.1016 -0.01976,-0.02258 -0.04092,-0.03986 -0.0635,-0.05186 -0.02258,-0.01199 -0.04551,-0.02081 -0.06879,-0.02645 -0.02329,-0.00565 -0.04657,-0.00918 -0.06985,-0.01059 -0.02329,-0.00141 -0.04551,-0.00211 -0.06668,-0.00211l-0.11853 0 0 -0.31539 -0.20744 0 0 0.89112zm0.20744 -0.1778l0 -0.22013 0.09736 0c0.01553,0 0.03317,0.0007 0.05292,0.00211 0.01976,0.00141 0.0381,0.00776 0.05503,0.01905 0.0127,0.00847 0.02329,0.01976 0.03175,0.03387 0.00847,0.01411 0.0127,0.03246 0.0127,0.05503 0,0.02823 -0.00599,0.04904 -0.01799,0.06244 -0.01199,0.01341 -0.02152,0.02294 -0.02857,0.02858 -0.01411,0.00847 -0.03069,0.01376 -0.04974,0.01587 -0.01905,0.00212 -0.03846,0.00318 -0.05821,0.00318l-0.09525 0z"/>
  </g>
 </g>
</svg>
