<?xml version="1.0" encoding="UTF-8"?>
<!DOCTYPE svg PUBLIC "-//W3C//DTD SVG 1.1//EN" "http://www.w3.org/Graphics/SVG/1.1/DTD/svg11.dtd">
<!-- Creator: CorelDRAW -->
<svg xmlns="http://www.w3.org/2000/svg" xml:space="preserve" width="100%" height="100%" style="shape-rendering:geometricPrecision; text-rendering:geometricPrecision; image-rendering:optimizeQuality; fill-rule:evenodd; clip-rule:evenodd"
viewBox="0 0 7.3 7.4"
 xmlns:xlink="http://www.w3.org/1999/xlink">
 <defs>
  <style type="text/css">
   <![CDATA[
    .str0 {stroke:white;stroke-width:0.2}
    .str1 {stroke:white;stroke-width:0.3;stroke-linecap:round}
    .fil3 {fill:none}
    .fil2 {fill:white}
    .fil0 {fill:#A02721}
    .fil1 {fill:white;fill-rule:nonzero}
   ]]>
  </style>
 </defs>
 <g id="Слой_x0020_1">
  <metadata id="CorelCorpID_0Corel-Layer"/>
  <g id="_145466264">
   <path id="_134978968" class="fil0" d="M0.60633 0.02531l6.08734 0c0.26216,0 0.59562,0.34152 0.59562,0.75841l0 5.83257c0,0.41688 -0.33366,0.7584 -0.59562,0.7584l-6.08734 0c-0.26195,0 -0.59562,-0.34128 -0.59562,-0.7584l0 -5.83257c0,-0.41713 0.33346,-0.75841 0.59562,-0.75841z"/>
   <polygon id="_134978896" class="fil1" points="4.52646,4.41175 4.90534,3.41956 4.93289,3.3463 5.01077,3.3463 5.62443,3.3463 5.70498,3.3463 5.7311,3.42243 6.10732,4.40223 5.87983,4.40209 5.6804,3.89099 5.6804,4.402 4.95959,4.40155 4.95959,3.91709 4.76712,4.41076 "/>
   <path id="_134978824" class="fil2" d="M5.25101 2.31785c0.22617,-0.04493 0.44599,0.10201 0.49091,0.32816 0.04494,0.22614 -0.102,0.44596 -0.32814,0.49092 -0.22616,0.04492 -0.44598,-0.10202 -0.49091,-0.32819 -0.04494,-0.22612 0.10203,-0.44595 0.32814,-0.49089z"/>
   <polygon id="_134978704" class="fil1" points="2.43711,5.21339 2.43711,5.90477 2.27715,5.90477 2.27715,5.34691 2.02202,5.34691 2.02202,5.90477 1.86206,5.90477 1.86206,5.21339 "/>
   <path id="_1349787041" class="fil1" d="M3.26597 5.55842c0,0.05464 -0.00793,0.10443 -0.02379,0.14938 -0.01587,0.04495 -0.03834,0.08328 -0.06742,0.11501 -0.02908,0.03173 -0.06412,0.0564 -0.1051,0.07403 -0.04098,0.01762 -0.08614,0.02644 -0.1355,0.02644 -0.04935,0 -0.0943,-0.00882 -0.13484,-0.02644 -0.04054,-0.01763 -0.07535,-0.0423 -0.10443,-0.07403 -0.02908,-0.03173 -0.05178,-0.07006 -0.06808,-0.11501 -0.0163,-0.04495 -0.02446,-0.09474 -0.02446,-0.14938 0,-0.05464 0.00816,-0.10421 0.02446,-0.14872 0.0163,-0.04451 0.03922,-0.08262 0.06874,-0.11435 0.02952,-0.03173 0.06456,-0.05618 0.1051,-0.07337 0.04054,-0.01718 0.08504,-0.02578 0.13351,-0.02578 0.04847,0 0.0932,0.0086 0.13418,0.02578 0.04098,0.01719 0.07601,0.04164 0.1051,0.07337 0.02908,0.03173 0.05177,0.06984 0.06808,0.11435 0.0163,0.04451 0.02445,0.09408 0.02445,0.14872zm-0.16392 0c0,-0.06874 -0.01476,-0.12316 -0.04428,-0.16326 -0.02953,-0.0401 -0.07073,-0.06015 -0.12361,-0.06015 -0.05287,0 -0.09408,0.02005 -0.1236,0.06015 -0.02952,0.0401 -0.04428,0.09452 -0.04428,0.16326 0,0.06962 0.01476,0.1247 0.04428,0.16524 0.02952,0.04054 0.07073,0.06081 0.1236,0.06081 0.05288,0 0.09408,-0.02027 0.12361,-0.06081 0.02952,-0.04054 0.04428,-0.09562 0.04428,-0.16524z"/>
   <polygon id="_13497870412" class="fil1" points="4.00627,5.21339 4.00627,5.90477 3.84631,5.90477 3.84631,5.34691 3.59118,5.34691 3.59118,5.90477 3.43122,5.90477 3.43122,5.21339 "/>
   <path id="_134978704123" class="fil1" d="M4.8153 5.21339l0 0.69138 -0.15863 0c0,-0.05023 0.00022,-0.10003 0.00066,-0.14938 0.00044,-0.04935 0.00088,-0.09518 0.00132,-0.13748 0.00044,-0.04231 0.00088,-0.0791 0.00132,-0.11039 0.00044,-0.03128 0.00067,-0.05442 0.00067,-0.0694 -0.02644,0.03437 -0.05376,0.07227 -0.08197,0.11369 -0.0282,0.04142 -0.05618,0.08284 -0.08394,0.12426 -0.02776,0.04142 -0.05398,0.08196 -0.07866,0.12162 -0.02467,0.03966 -0.04626,0.07535 -0.06477,0.10708l-0.14145 0 0 -0.69138 0.15731 0c0,0.05112 -0.00022,0.09981 -0.00066,0.14608 -0.00044,0.04626 -0.00066,0.08835 -0.00066,0.12624 0,0.0379 -0.00022,0.07095 -0.00066,0.09915 -0.00044,0.0282 -0.00066,0.04979 -0.00066,0.06477 0.02467,-0.03789 0.05023,-0.07689 0.07667,-0.11699 0.02644,-0.0401 0.0531,-0.07932 0.07998,-0.11765 0.02688,-0.03834 0.05354,-0.07469 0.07998,-0.10906 0.02644,-0.03437 0.05199,-0.06522 0.07667,-0.09254l0.13748 0z"/>
   <polygon id="_1349787041234" class="fil1" points="5.53973,5.34691 5.31632,5.34691 5.31632,5.90477 5.15636,5.90477 5.15636,5.34691 4.93428,5.34691 4.93428,5.21339 5.53973,5.21339 "/>
   <g>
    <polygon id="_134978632" class="fil2" points="3.96048,2.23431 3.0295,2.23431 3.03047,1.33317 2.84194,1.33222 3.52487,0.97598 4.13096,1.34685 3.95966,1.34517 "/>
    <g>
     <rect id="_134978560" class="fil0" x="3.2386" y="1.42857" width="0.165231" height="0.215519"/>
     <rect id="_134978488" class="fil0" x="3.56907" y="1.42857" width="0.165231" height="0.215519"/>
    </g>
    <g>
     <rect id="_134978392" class="fil0" x="3.2386" y="1.8165" width="0.165231" height="0.215519"/>
     <rect id="_134978320" class="fil0" x="3.56907" y="1.8165" width="0.165231" height="0.215519"/>
    </g>
   </g>
   <path id="_134972152" class="fil3 str0" d="M4.95185 2.30463c-0.14401,-0.02503 -0.22832,-0.06426 -0.29914,-0.09884 -0.31166,-0.15219 -0.20253,-0.24955 -0.22275,-0.70399 -0.02136,-0.48002 -0.3134,-0.77009 -0.77332,-0.80995 -0.85293,-0.07391 -1.31625,0.5042 -1.08984,1.28275 0.2568,0.88306 1.59199,0.64552 2.38505,0.33003z"/>
   <line id="_134977312" class="fil3 str1" x1="1.98836" y1="2.74185" x2="1.98836" y2= "4.039" />
   <line id="_134977888" class="fil3 str1" x1="2.63694" y1="3.39043" x2="1.33979" y2= "3.39043" />
  </g>
 </g>
</svg>
