<?xml version="1.0" encoding="UTF-8"?>
<!DOCTYPE svg PUBLIC "-//W3C//DTD SVG 1.1//EN" "http://www.w3.org/Graphics/SVG/1.1/DTD/svg11.dtd">
<!-- Creator: CorelDRAW -->
<svg xmlns="http://www.w3.org/2000/svg" xml:space="preserve" width="100%" height="100%" style="shape-rendering:geometricPrecision; text-rendering:geometricPrecision; image-rendering:optimizeQuality; fill-rule:evenodd; clip-rule:evenodd"
viewBox="0 0 7.3 7.4"
 xmlns:xlink="http://www.w3.org/1999/xlink">
 <defs>
  <style type="text/css">
   <![CDATA[
    .str0 {stroke:white;stroke-width:0.3;stroke-linecap:round}
    .fil3 {fill:none}
    .fil1 {fill:white}
    .fil0 {fill:#A02721}
    .fil2 {fill:white;fill-rule:nonzero}
   ]]>
  </style>
 </defs>
 <g id="Слой_x0020_1">
  <metadata id="CorelCorpID_0Corel-Layer"/>
  <g id="_136081808">
   <path id="_134973496" class="fil0" d="M0.60633 0.02531l6.08734 0c0.26216,0 0.59562,0.34152 0.59562,0.75841l0 5.83257c0,0.41688 -0.33366,0.7584 -0.59562,0.7584l-6.08734 0c-0.26195,0 -0.59562,-0.34128 -0.59562,-0.7584l0 -5.83257c0,-0.41713 0.33346,-0.75841 0.59562,-0.75841z"/>
   <g>
    <polygon id="_134961016" class="fil1" points="5.67332,4.09271 3.5228,4.09271 3.52503,2.01111 3.08952,2.00893 4.66708,1.18601 6.06712,2.04271 5.67143,2.03883 "/>
    <g>
     <rect id="_134972344" class="fil0" x="4.00581" y="2.23148" width="0.381677" height="0.497839"/>
     <rect id="_134976112" class="fil0" x="4.76917" y="2.23148" width="0.381677" height="0.497839"/>
    </g>
    <g>
     <rect id="_134975680" class="fil0" x="4.00581" y="3.12759" width="0.381677" height="0.497839"/>
     <rect id="_134973184" class="fil0" x="4.76917" y="3.12759" width="0.381677" height="0.497839"/>
    </g>
   </g>
   <polygon id="_134976424" class="fil2" points="1.10714,5.90608 0.98075,5.90608 0.98075,5.67733 0.77498,5.67733 0.77498,5.90608 0.6486,5.90608 0.6486,5.3598 0.77498,5.3598 0.77498,5.57288 0.98075,5.57288 0.98075,5.3598 1.10714,5.3598 "/>
   <path id="_1349764241" class="fil2" d="M1.2377 5.63555c0,-0.04805 0.00713,-0.09017 0.02141,-0.12638 0.01427,-0.03621 0.03325,-0.06633 0.05692,-0.09035 0.02368,-0.02403 0.05084,-0.04213 0.08148,-0.05432 0.03064,-0.01218 0.06197,-0.01828 0.094,-0.01828 0.07521,0 0.13387,0.02333 0.176,0.06998 0.04213,0.04666 0.0632,0.11629 0.0632,0.20891 0,0.00696 -0.00018,0.01479 -0.00053,0.0235 -0.00035,0.0087 -0.00087,0.01654 -0.00156,0.0235l-0.36036 0c0.00348,0.04387 0.01898,0.07782 0.04648,0.10184 0.02751,0.02402 0.06737,0.03604 0.1196,0.03604 0.03064,0 0.05866,-0.00279 0.08408,-0.00836 0.02542,-0.00557 0.04544,-0.01149 0.06006,-0.01776l0.01671 0.10341c-0.00696,0.00348 -0.01654,0.00714 -0.02872,0.01097 -0.01219,0.00383 -0.02611,0.00731 -0.04178,0.01044 -0.01567,0.00313 -0.03256,0.00575 -0.05066,0.00784 -0.01811,0.00208 -0.03656,0.00313 -0.05536,0.00313 -0.04805,0 -0.08983,-0.00714 -0.12534,-0.02141 -0.03551,-0.01428 -0.06476,-0.03412 -0.08774,-0.05954 -0.02298,-0.02542 -0.04004,-0.05536 -0.05118,-0.08983 -0.01114,-0.03447 -0.01671,-0.07224 -0.01671,-0.11333zm0.36662 -0.0564c0,-0.01741 -0.00244,-0.03395 -0.00731,-0.04962 -0.00488,-0.01566 -0.01201,-0.02924 -0.02141,-0.04073 -0.00941,-0.01149 -0.02089,-0.02054 -0.03447,-0.02716 -0.01358,-0.00661 -0.02977,-0.00992 -0.04857,-0.00992 -0.0195,0 -0.03656,0.00365 -0.05118,0.01097 -0.01463,0.00731 -0.02699,0.01688 -0.03708,0.02872 -0.0101,0.01184 -0.01793,0.02542 -0.02351,0.04074 -0.00557,0.01531 -0.0094,0.03098 -0.01149,0.047l0.23502 0z"/>
   <path id="_13497642412" class="fil2" d="M2.22685 5.63555c0,-0.0564 -0.01271,-0.10027 -0.03812,-0.13161 -0.02542,-0.03133 -0.06633,-0.047 -0.12273,-0.047 -0.01184,0 -0.0242,0.00052 -0.03708,0.00157 -0.01288,0.00104 -0.02559,0.00331 -0.03813,0.00679l0 0.31231c0.01114,0.00766 0.02594,0.01479 0.04439,0.02141 0.01846,0.00661 0.03813,0.00992 0.05902,0.00992 0.04596,0 0.07956,-0.01567 0.10079,-0.047 0.02124,-0.03134 0.03186,-0.07347 0.03186,-0.12639zm0.12952 -0.00209c0,0.04178 -0.0054,0.08008 -0.01619,0.1149 -0.01079,0.03482 -0.02629,0.06476 -0.04648,0.08983 -0.02019,0.02507 -0.04544,0.04456 -0.07573,0.05849 -0.03029,0.01393 -0.06458,0.02089 -0.10288,0.02089 -0.02576,0 -0.04944,-0.00313 -0.07103,-0.0094 -0.02158,-0.00627 -0.03934,-0.01323 -0.05327,-0.02089l0 0.21203 -0.12638 0 0 -0.72175c0.02576,-0.00697 0.05745,-0.01358 0.09505,-0.01985 0.0376,-0.00626 0.07729,-0.0094 0.11907,-0.0094 0.04317,0 0.08182,0.00662 0.11594,0.01985 0.03412,0.01323 0.0632,0.0322 0.08722,0.05692 0.02402,0.02472 0.04248,0.05467 0.05536,0.08983 0.01288,0.03517 0.01932,0.07468 0.01932,0.11855z"/>
   <path id="_134976424123" class="fil2" d="M2.93294 5.3598c-0.0564,0.20751 -0.12186,0.39552 -0.19636,0.56404 -0.01393,0.03133 -0.02821,0.05814 -0.04283,0.08042 -0.01462,0.02229 -0.03099,0.04074 -0.04909,0.05536 -0.01811,0.01463 -0.0383,0.02525 -0.06058,0.03186 -0.02229,0.00662 -0.04805,0.00992 -0.0773,0.00992 -0.01949,0 -0.03882,-0.00209 -0.05797,-0.00626 -0.01915,-0.00418 -0.0336,-0.00871 -0.04334,-0.01358l0.02297 -0.10132c0.02507,0.00975 0.04979,0.01462 0.07416,0.01462 0.03273,0 0.05832,-0.00783 0.07678,-0.0235 0.01845,-0.01567 0.03464,-0.03986 0.04857,-0.07259 -0.0397,-0.0766 -0.07782,-0.16016 -0.11438,-0.25068 -0.03656,-0.09053 -0.06911,-0.18662 -0.09766,-0.28829l0.13474 0c0.00697,0.02925 0.0155,0.06093 0.02559,0.09505 0.0101,0.03412 0.02107,0.06877 0.0329,0.10393 0.01184,0.03517 0.02438,0.07016 0.03761,0.10497 0.01323,0.03482 0.02646,0.0672 0.03969,0.09714 0.02228,-0.06197 0.04317,-0.12795 0.06267,-0.19793 0.0195,-0.06998 0.03725,-0.1377 0.05327,-0.20316l0.13056 0z"/>
   <path id="_1349764241234" class="fil2" d="M3.22541 5.53841l0.11594 -0.17861 0.13265 0 -0.17966 0.258c0.03761,0.04874 0.07364,0.09801 0.10811,0.14779 0.03447,0.04979 0.06284,0.09662 0.08513,0.14049l-0.13683 0c-0.00627,-0.01323 -0.01445,-0.02838 -0.02455,-0.04544 -0.0101,-0.01706 -0.02089,-0.03481 -0.03238,-0.05327 -0.01149,-0.01845 -0.0235,-0.03673 -0.03604,-0.05483 -0.01253,-0.01811 -0.02472,-0.03517 -0.03655,-0.05118 -0.02437,0.03133 -0.04822,0.06597 -0.07155,0.10392 -0.02333,0.03796 -0.04265,0.07155 -0.05797,0.1008l-0.12952 0c0.01044,-0.02089 0.02298,-0.04317 0.0376,-0.06685 0.01462,-0.02367 0.03029,-0.04787 0.047,-0.07259 0.01672,-0.02472 0.03395,-0.04944 0.05171,-0.07416 0.01775,-0.02472 0.03534,-0.04822 0.05274,-0.07051l-0.1807 -0.26217 0.13892 0 0.11595 0.17861z"/>
   <path id="_13497642412345" class="fil2" d="M4.07564 5.63242c0,0.04317 -0.00627,0.08251 -0.0188,0.11803 -0.01253,0.03551 -0.03029,0.0658 -0.05327,0.09087 -0.02298,0.02507 -0.05066,0.04457 -0.08304,0.05849 -0.03238,0.01393 -0.06807,0.02089 -0.10706,0.02089 -0.039,0 -0.07451,-0.00696 -0.10654,-0.02089 -0.03203,-0.01392 -0.05954,-0.03342 -0.08252,-0.05849 -0.02298,-0.02507 -0.04091,-0.05536 -0.05379,-0.09087 -0.01288,-0.03552 -0.01932,-0.07486 -0.01932,-0.11803 0,-0.04317 0.00644,-0.08234 0.01932,-0.11751 0.01288,-0.03516 0.03099,-0.06528 0.05431,-0.09035 0.02333,-0.02507 0.05101,-0.04439 0.08304,-0.05797 0.03203,-0.01358 0.0672,-0.02037 0.1055,-0.02037 0.0383,0 0.07364,0.00679 0.10602,0.02037 0.03238,0.01358 0.06006,0.0329 0.08303,0.05797 0.02298,0.02507 0.04091,0.05519 0.0538,0.09035 0.01288,0.03517 0.01932,0.07434 0.01932,0.11751zm-0.12952 0c0,-0.05432 -0.01166,-0.09732 -0.03499,-0.129 -0.02333,-0.03168 -0.05588,-0.04752 -0.09766,-0.04752 -0.04178,0 -0.07434,0.01584 -0.09766,0.04752 -0.02333,0.03168 -0.03499,0.07468 -0.03499,0.129 0,0.05501 0.01166,0.09853 0.03499,0.13056 0.02332,0.03203 0.05588,0.04805 0.09766,0.04805 0.04178,0 0.07433,-0.01602 0.09766,-0.04805 0.02333,-0.03203 0.03499,-0.07555 0.03499,-0.13056z"/>
   <path id="_134976424123456" class="fil2" d="M4.33364 5.54781c-0.00209,0.02925 -0.00418,0.05971 -0.00627,0.0914 -0.00209,0.03168 -0.00383,0.06319 -0.00522,0.09453 -0.00139,0.03133 -0.00279,0.06162 -0.00418,0.09087 -0.00139,0.02924 -0.00244,0.0564 -0.00313,0.08147l-0.12221 0c0.00139,-0.04039 0.00348,-0.08408 0.00627,-0.13109 0.00278,-0.047 0.00609,-0.0947 0.00992,-0.14309 0.00383,-0.0484 0.00783,-0.09592 0.01201,-0.14258 0.00418,-0.04665 0.0087,-0.08983 0.01358,-0.12952l0.10967 0c0.02646,0.04248 0.05327,0.09244 0.08043,0.14989 0.02716,0.05745 0.05745,0.12273 0.09087,0.19584 0.03482,-0.0745 0.0665,-0.14188 0.09505,-0.20211 0.02855,-0.06023 0.05397,-0.10811 0.07625,-0.14362l0.11072 0c0.00487,0.03969 0.00957,0.08287 0.0141,0.12952 0.00453,0.04666 0.00853,0.09418 0.01201,0.14258 0.00348,0.04839 0.00662,0.09609 0.0094,0.14309 0.00279,0.04701 0.00488,0.0907 0.00627,0.13109l-0.12534 0c-0.00139,-0.0571 -0.00366,-0.11611 -0.00679,-0.17704 -0.00313,-0.06093 -0.00679,-0.12134 -0.01097,-0.18123 -0.01044,0.02089 -0.02176,0.04422 -0.03394,0.06999 -0.01219,0.02576 -0.0242,0.05187 -0.03604,0.07833 -0.01184,0.02646 -0.02333,0.05205 -0.03447,0.07677 -0.01114,0.02473 -0.02089,0.04649 -0.02924,0.06529l-0.09401 0c-0.00836,-0.0188 -0.01828,-0.04074 -0.02977,-0.06581 -0.01149,-0.02507 -0.02315,-0.05083 -0.03499,-0.07729 -0.01184,-0.02646 -0.02385,-0.0524 -0.03604,-0.07782 -0.01218,-0.02541 -0.0235,-0.04857 -0.03394,-0.06946z"/>
   <path id="_1349764241234567" class="fil2" d="M5.11389 5.90608l-0.12639 0 0 -0.54628 0.12639 0 0 0.54628zm0.01358 -0.70609c0,0.02368 -0.00766,0.04248 -0.02298,0.0564 -0.01532,0.01393 -0.03343,0.02089 -0.05432,0.02089 -0.02158,0 -0.04004,-0.00696 -0.05536,-0.02089 -0.01532,-0.01392 -0.02298,-0.03272 -0.02298,-0.0564 0,-0.02437 0.00766,-0.04352 0.02298,-0.05745 0.01532,-0.01392 0.03378,-0.02089 0.05536,-0.02089 0.02089,0 0.039,0.00697 0.05432,0.02089 0.01532,0.01393 0.02298,0.03308 0.02298,0.05745z"/>
   <path id="_13497642412345678" class="fil2" d="M5.24445 5.63346c0,-0.04038 0.00626,-0.07816 0.0188,-0.11333 0.01253,-0.03516 0.03046,-0.06563 0.05379,-0.09139 0.02333,-0.02577 0.0517,-0.04596 0.08513,-0.06058 0.03342,-0.01463 0.07102,-0.02194 0.1128,-0.02194 0.05153,0 0.10028,0.0094 0.14624,0.0282l-0.02716 0.10341c-0.01462,-0.00627 -0.03116,-0.01149 -0.04962,-0.01567 -0.01845,-0.00417 -0.03812,-0.00626 -0.05901,-0.00626 -0.04944,0 -0.08704,0.01549 -0.11281,0.04648 -0.02576,0.03098 -0.03864,0.07468 -0.03864,0.13108 0,0.05432 0.01218,0.09732 0.03655,0.129 0.02438,0.03168 0.06546,0.04753 0.12326,0.04753 0.02158,0 0.04282,-0.00209 0.06371,-0.00627 0.02089,-0.00418 0.039,-0.0094 0.05432,-0.01567l0.01775 0.10445c-0.01392,0.00696 -0.03499,0.01323 -0.06319,0.0188 -0.0282,0.00557 -0.05727,0.00836 -0.08722,0.00836 -0.04665,0 -0.08721,-0.00714 -0.12168,-0.02141 -0.03447,-0.01428 -0.06302,-0.03412 -0.08565,-0.05954 -0.02263,-0.02542 -0.03952,-0.05571 -0.05066,-0.09087 -0.01114,-0.03517 -0.01671,-0.07329 -0.01671,-0.11438z"/>
   <polygon id="_134976424123456789" class="fil2" points="6.17928,5.4653 6.00276,5.4653 6.00276,5.90608 5.87638,5.90608 5.87638,5.4653 5.7009,5.4653 5.7009,5.3598 6.17928,5.3598 "/>
   <path id="_13497642412345678910" class="fil2" d="M6.39967 5.56139c0.01045,-0.00278 0.02577,-0.00522 0.04596,-0.00731 0.0202,-0.00209 0.04039,-0.00313 0.06058,-0.00313 0.03134,0 0.06076,0.00348 0.08826,0.01044 0.02751,0.00697 0.05136,0.01793 0.07155,0.0329 0.0202,0.01498 0.03621,0.03412 0.04805,0.05745 0.01184,0.02333 0.01776,0.05101 0.01776,0.08304 0,0.03273 -0.00557,0.06058 -0.01671,0.08356 -0.01115,0.02298 -0.02716,0.04178 -0.04805,0.0564 -0.02089,0.01463 -0.04579,0.02542 -0.07468,0.03238 -0.0289,0.00697 -0.06111,0.01045 -0.09662,0.01045 -0.04109,0 -0.07938,-0.00209 -0.1149,-0.00627 -0.03551,-0.00418 -0.07137,-0.01044 -0.10758,-0.0188l0 -0.5327 0.12638 0 0 0.20159zm0.09296 0.25695c0.03552,0 0.0632,-0.00679 0.08304,-0.02037 0.01985,-0.01358 0.02977,-0.03534 0.02977,-0.06528 0,-0.01532 -0.00331,-0.0282 -0.00992,-0.03865 -0.00662,-0.01044 -0.01532,-0.01897 -0.02611,-0.02559 -0.0108,-0.00661 -0.02351,-0.01131 -0.03813,-0.0141 -0.01462,-0.00278 -0.02994,-0.00417 -0.04596,-0.00417 -0.01462,0 -0.02994,0.00052 -0.04596,0.00156 -0.01601,0.00105 -0.02924,0.00296 -0.03969,0.00575l0 0.15563c0.00906,0.00139 0.02246,0.00261 0.04022,0.00365 0.01775,0.00105 0.03534,0.00157 0.05274,0.00157z"/>
   <line id="_134972056" class="fil3 str0" x1="2.04456" y1="2.35625" x2="2.04456" y2= "3.6534" />
   <line id="_134976544" class="fil3 str0" x1="2.69314" y1="3.00483" x2="1.39599" y2= "3.00483" />
  </g>
 </g>
</svg>
