<?xml version="1.0" encoding="UTF-8"?>
<!DOCTYPE svg PUBLIC "-//W3C//DTD SVG 1.1//EN" "http://www.w3.org/Graphics/SVG/1.1/DTD/svg11.dtd">
<!-- Creator: CorelDRAW -->
<svg xmlns="http://www.w3.org/2000/svg" xml:space="preserve" width="100%" height="100%" style="shape-rendering:geometricPrecision; text-rendering:geometricPrecision; image-rendering:optimizeQuality; fill-rule:evenodd; clip-rule:evenodd"
viewBox="0 0 15.8 16"
 xmlns:xlink="http://www.w3.org/1999/xlink">
 <defs>
  <style type="text/css">
   <![CDATA[
    .fil2 {fill:#1F1A17}
    .fil3 {fill:white}
    .fil1 {fill:#1F1A17;fill-rule:nonzero}
    .fil0 {fill:#AAABAE;fill-rule:nonzero}
   ]]>
  </style>
 </defs>
 <g id="Слой_x0020_1">
  <metadata id="CorelCorpID_0Corel-Layer"/>
  <path class="fil0" d="M1.40211 0.05497l12.9958 0c0.32538,0 0.69279,0.21761 0.96433,0.56336 0.2394,0.30483 0.40725,0.71116 0.40725,1.15574l0 12.4519c0,0.4445 -0.1679,0.85077 -0.40727,1.15557 -0.27161,0.34586 -0.63911,0.56353 -0.96431,0.56353l-12.9958 0c-0.32524,0 -0.69278,-0.21759 -0.96441,-0.56346 -0.23933,-0.30474 -0.40717,-0.71097 -0.40717,-1.15564l0 -12.4519c0,-0.44476 0.16781,-0.85105 0.40715,-1.15581 0.27156,-0.34577 0.63902,-0.56329 0.96443,-0.56329zm12.9958 0.2l-12.9958 0c-0.26501,0 -0.57274,0.18796 -0.80739,0.48673 -0.21409,0.27261 -0.36419,0.63558 -0.36419,1.03237l0 12.4519c0,0.3967 0.15013,0.75961 0.36421,1.0322 0.23473,0.29888 0.54254,0.4869 0.80737,0.4869l12.9958 0c0.2648,0 0.57256,-0.1881 0.80727,-0.48697 0.21412,-0.27265 0.36431,-0.6356 0.36431,-1.03213l0 -12.4519c0,-0.39661 -0.15014,-0.75963 -0.36429,-1.0323 -0.23464,-0.29877 -0.54232,-0.4868 -0.80729,-0.4868z"/>
  <path class="fil1" d="M4.4202 11.9159c0.04327,-0.04328 0.09031,-0.09173 0.14111,-0.14535 0.0508,-0.05362 0.10113,-0.10771 0.15099,-0.16228 0.04986,-0.05456 0.09737,-0.10677 0.14252,-0.15663 0.04516,-0.04986 0.08279,-0.09266 0.11289,-0.12841l0.40076 0c-0.0414,0.04892 -0.0889,0.10254 -0.14253,0.16087 -0.05362,0.05832 -0.10912,0.11806 -0.16651,0.17921 -0.05738,0.06114 -0.11383,0.12041 -0.16933,0.1778 -0.0555,0.05738 -0.10583,0.10865 -0.15099,0.15381 0.05833,0.04892 0.119,0.10583 0.18203,0.17074 0.06303,0.06491 0.12512,0.13359 0.18627,0.20602 0.06115,0.07244 0.11806,0.14582 0.17074,0.22014 0.05269,0.07432 0.0969,0.14346 0.13265,0.20743l-0.39511 0c-0.03575,-0.05644 -0.07761,-0.11571 -0.12559,-0.1778 -0.04798,-0.06209 -0.09831,-0.12277 -0.15099,-0.18203 -0.05268,-0.05927 -0.1063,-0.11524 -0.16087,-0.16793 -0.05456,-0.05268 -0.10724,-0.09783 -0.15804,-0.13546l0 0.66322 -0.34149 0 0 -1.47602 0.34149 0 0 0.59267z"/>
  <path id="1" class="fil1" d="M6.86424 11.3232c-0.1524,0.56068 -0.32926,1.06868 -0.53058,1.524 -0.03763,0.08466 -0.0762,0.1571 -0.11571,0.21731 -0.03951,0.06021 -0.08373,0.11007 -0.13264,0.14958 -0.04892,0.03951 -0.10349,0.0682 -0.16369,0.08607 -0.06021,0.01788 -0.12982,0.02682 -0.20885,0.02682 -0.05268,0 -0.10489,-0.00565 -0.15663,-0.01694 -0.05174,-0.01129 -0.09078,-0.02352 -0.11712,-0.03669l0.06209 -0.27375c0.06773,0.02634 0.13452,0.03951 0.20037,0.03951 0.08843,0 0.15758,-0.02117 0.20744,-0.0635 0.04986,-0.04233 0.0936,-0.10772 0.13123,-0.19615 -0.10724,-0.20696 -0.21025,-0.43274 -0.30903,-0.67733 -0.09878,-0.24459 -0.18674,-0.50423 -0.26388,-0.77893l0.36407 0c0.01881,0.07902 0.04186,0.16463 0.06914,0.25682 0.02728,0.09219 0.05692,0.1858 0.0889,0.28081 0.03199,0.09502 0.06585,0.18956 0.1016,0.28363 0.03575,0.09408 0.0715,0.18157 0.10724,0.26247 0.06021,-0.16745 0.11666,-0.34572 0.16934,-0.53481 0.05268,-0.18909 0.10066,-0.37206 0.14393,-0.54892l0.35278 0z"/>
  <polygon id="12" class="fil1" points="8.35155,11.3232 8.35155,12.7992 8.01006,12.7992 8.01006,11.6083 7.46537,11.6083 7.46537,12.7992 7.12388,12.7992 7.12388,11.3232 "/>
  <path id="123" class="fil1" d="M9.36473 11.6054c-0.00189,0.08279 -0.00471,0.16886 -0.00847,0.25823 -0.00376,0.08937 -0.0127,0.17733 -0.02681,0.26388 -0.01411,0.08655 -0.03622,0.16933 -0.06632,0.24836 -0.03011,0.07902 -0.07197,0.15005 -0.12559,0.21307 -0.05362,0.06303 -0.12042,0.11572 -0.20038,0.15805 -0.07996,0.04233 -0.17733,0.06914 -0.2921,0.08043l-0.04798 -0.28504c0.09596,-0.01882 0.17028,-0.04939 0.22296,-0.09172 0.05268,-0.04234 0.09313,-0.09643 0.12135,-0.16228 0.02258,-0.04892 0.03998,-0.10442 0.05221,-0.16651 0.01223,-0.06209 0.02164,-0.12747 0.02823,-0.19615 0.00658,-0.06867 0.01081,-0.13876 0.0127,-0.21025 0.00188,-0.0715 0.00282,-0.14111 0.00282,-0.20885l0 -0.18344 1.04422 0 0 1.47602 -0.34149 0 0 -1.1938 -0.37535 0z"/>
  <path id="1234" class="fil1" d="M11.8511 12.8387c-0.09031,0 -0.17451,-0.01552 -0.25259,-0.04657 -0.07808,-0.03104 -0.14722,-0.07525 -0.20743,-0.13264 -0.06021,-0.05739 -0.1096,-0.12653 -0.14817,-0.20743 -0.03857,-0.08091 -0.0635,-0.17122 -0.07479,-0.27094l-0.31044 0 0 0.61807 -0.34149 0 0 -1.47602 0.34149 0 0 0.58138 0.31609 0c0.01317,-0.09408 0.03998,-0.17921 0.08043,-0.25541 0.04045,-0.0762 0.09031,-0.14112 0.14958,-0.19474 0.05927,-0.05362 0.127,-0.09501 0.2032,-0.12418 0.0762,-0.02916 0.15757,-0.04374 0.24412,-0.04374 0.09784,0 0.18909,0.01834 0.27376,0.05503 0.08466,0.03669 0.15804,0.0889 0.22013,0.15664 0.06209,0.06773 0.11054,0.1491 0.14534,0.24412 0.03481,0.09501 0.05221,0.20085 0.05221,0.3175 0,0.11853 -0.0174,0.22578 -0.05221,0.32173 -0.0348,0.09596 -0.08325,0.1778 -0.14534,0.24553 -0.06209,0.06774 -0.13547,0.11995 -0.22013,0.15664 -0.08467,0.03669 -0.17592,0.05503 -0.27376,0.05503zm0 -1.25589c-0.10536,0 -0.18862,0.04281 -0.24977,0.12841 -0.06114,0.08561 -0.09172,0.20179 -0.09172,0.34855 0,0.14675 0.03058,0.26388 0.09172,0.35136 0.06115,0.08749 0.14441,0.13124 0.24977,0.13124 0.10536,0 0.18862,-0.04375 0.24977,-0.13124 0.06115,-0.08748 0.09172,-0.20461 0.09172,-0.35136 0,-0.14676 -0.03057,-0.26294 -0.09172,-0.34855 -0.06115,-0.0856 -0.14441,-0.12841 -0.24977,-0.12841z"/>
  <g id="_125223752">
   <path id="_125217128" class="fil1" d="M6.82411 7.88594c-0.04024,0.0903 -0.09666,0.18678 -0.15448,0.28571 -0.10354,0.17715 -0.21222,0.3631 -0.21768,0.49318 -0.00437,0.10422 0.08461,0.18058 0.3691,0.19319l0 -0.00021 3.34324 0 0 0.2 -3.34324 0 -0.00391 -0.00039c-0.43864,-0.01843 -0.57373,-0.17845 -0.56441,-0.40041 0.00761,-0.18129 0.12879,-0.38861 0.24424,-0.58614 0.07849,-0.1343 0.15411,-0.26365 0.1787,-0.35787l-1.04928 -2.46354 -0.8375 0 0 -0.2 0.90334 0 0.06585 0 0.02595 0.06094 1.09732 2.57632 2.82583 -2e-005 1.21681 -2.19498 0.17422 0.09688 -1.24518 2.24615 -0.02837 0.05117 -0.05874 0 -2.94181 2e-005z"/>
   <circle id="_125222072" class="fil2" cx="6.68967" cy="9.76111" r="0.597878"/>
   <circle id="_125224592" class="fil2" cx="9.66686" cy="9.76111" r="0.597878"/>
   <g>
    <polygon id="_125221784" class="fil2" points="9.90729,6.49099 6.729,6.49099 6.7323,3.41458 6.08866,3.41135 8.42015,2.19515 10.4893,3.46128 9.90448,3.45554 "/>
    <g>
     <rect id="_125224760" class="fil3" x="7.44285" y="3.74026" width="0.564083" height="0.735761"/>
     <rect id="_125217080" class="fil3" x="8.57102" y="3.74026" width="0.564083" height="0.735761"/>
    </g>
    <g>
     <rect id="_125217632" class="fil3" x="7.44285" y="5.06463" width="0.564083" height="0.735761"/>
     <rect id="_125218136" class="fil3" x="8.57102" y="5.06463" width="0.564083" height="0.735761"/>
    </g>
   </g>
  </g>
 </g>
</svg>
