<?xml version="1.0" encoding="UTF-8"?>
<!DOCTYPE svg PUBLIC "-//W3C//DTD SVG 1.1//EN" "http://www.w3.org/Graphics/SVG/1.1/DTD/svg11.dtd">
<!-- Creator: CorelDRAW -->
<svg xmlns="http://www.w3.org/2000/svg" xml:space="preserve" width="331mm" height="86mm" style="shape-rendering:geometricPrecision; text-rendering:geometricPrecision; image-rendering:optimizeQuality; fill-rule:evenodd; clip-rule:evenodd"
viewBox="0 0 331 86"
 xmlns:xlink="http://www.w3.org/1999/xlink">
 <defs>
  <style type="text/css">
   <![CDATA[
    .fil3 {fill:none}
    .fil0 {fill:white}
    .fil2 {fill:#1F1A17;fill-rule:nonzero}
    .fil1 {fill:#AAABAE;fill-rule:nonzero}
   ]]>
  </style>
 </defs>
 <g id="Слой_x0020_1">
  <metadata id="CorelCorpID_0Corel-Layer"/>
  <g id="_127118480">
   <path id="_127118744" class="fil0" d="M14.1611 1.3791l302.678 0c5.5967,0 12.7158,7.2915 12.7158,16.191l0 50.8597c0,8.8997 -7.1244,16.191 -12.7158,16.191l-302.678 0c-5.5914,0 -12.7158,-7.2858 -12.7158,-16.191l0 -50.8597c0,-8.9051 7.1191,-16.191 12.7158,-16.191z"/>
   <path id="_127126160" class="fil1" d="M14.1611 0.383l302.678 0 0 -0.0039c3.2538,0 6.9277,2.1761 9.6432,5.6337 2.394,3.0483 4.0726,7.1117 4.0726,11.5573l-0.0039 0 0 50.8597 0.0039 0c0,4.4446 -1.679,8.5072 -4.0728,11.5552 -2.7163,3.4587 -6.3914,5.6358 -9.643,5.6358l0 -0.0039 -302.678 0 0 0.0039c-3.2519,0 -6.9275,-2.176 -9.644,-5.6349 -2.3933,-3.0474 -4.0718,-7.1095 -4.0718,-11.5561l0.0039 0 0 -50.8597 -0.0039 0c0,-4.4476 1.6781,-8.5105 4.0715,-11.5581 2.7156,-3.4577 6.3902,-5.6329 9.6443,-5.6329l0 0.0039zm302.678 1.9922l-302.678 0 0 0.0039c-2.6501,0 -5.7274,1.8796 -8.0739,4.8673 -2.1409,2.7261 -3.6419,6.3558 -3.6419,10.3237l-0.0039 0 0 50.8597 0.0039 0c0,3.9669 1.5014,7.5958 3.6422,10.3217 2.3474,2.9889 5.4256,4.8693 8.0736,4.8693l0 0.0039 302.678 0 0 -0.0039c2.6475,0 5.7253,-1.8813 8.0726,-4.8702 2.1413,-2.7265 3.6432,-6.3559 3.6432,-10.3208l0.0039 0 0 -50.8597 -0.0039 0c0,-3.9659 -1.5015,-7.5962 -3.643,-10.3229 -2.3464,-2.9877 -5.4232,-4.8681 -8.0728,-4.8681l0 -0.0039z"/>
   <path id="_127408040" class="fil2" d="M123.335 53.4632l-3.4148 0 0 -6.1805 -5.5596 0 0 6.1805 -3.4148 0 0 -14.7599 3.4148 0 0 5.7572 5.5596 0 0 -5.7572 3.4148 0 0 14.7599zm17.695 -7.3941c0,1.1665 -0.1694,2.2295 -0.508,3.1891 -0.3387,0.9595 -0.8184,1.7779 -1.4393,2.4553 -0.6209,0.6773 -1.3688,1.2041 -2.2436,1.5804 -0.8749,0.3763 -1.8391,0.5644 -2.8927,0.5644 -1.0536,0 -2.0132,-0.1881 -2.8786,-0.5644 -0.8655,-0.3763 -1.6087,-0.9031 -2.2296,-1.5804 -0.6208,-0.6774 -1.1053,-1.4958 -1.4534,-2.4553 -0.348,-0.9596 -0.5221,-2.0226 -0.5221,-3.1891 0,-1.1665 0.1741,-2.2248 0.5221,-3.1749 0.3481,-0.9501 0.8373,-1.7638 1.4676,-2.4412 0.6302,-0.6773 1.3781,-1.1994 2.2436,-1.5663 0.8654,-0.3668 1.8156,-0.5503 2.8504,-0.5503 1.0348,0 1.9896,0.1835 2.8645,0.5503 0.8748,0.3669 1.6227,0.889 2.2436,1.5663 0.6208,0.6774 1.1053,1.4911 1.4534,2.4412 0.348,0.9501 0.5221,2.0084 0.5221,3.1749zm-3.4995 0c0,-1.4675 -0.3151,-2.6293 -0.9454,-3.4853 -0.6303,-0.8561 -1.5099,-1.2841 -2.6387,-1.2841 -1.1289,0 -2.0085,0.428 -2.6388,1.2841 -0.6302,0.856 -0.9454,2.0178 -0.9454,3.4853 0,1.4864 0.3152,2.6623 0.9454,3.5277 0.6303,0.8655 1.5099,1.2982 2.6388,1.2982 1.1288,0 2.0084,-0.4327 2.6387,-1.2982 0.6303,-0.8654 0.9454,-2.0413 0.9454,-3.5277zm12.8973 7.6763c-0.5457,0 -1.1007,-0.0188 -1.6651,-0.0564 -0.5645,-0.0377 -1.1054,-0.0847 -1.6228,-0.1411 -0.5174,-0.0565 -1.0018,-0.1176 -1.4534,-0.1835 -0.4515,-0.0658 -0.8278,-0.1364 -1.1288,-0.2116l0 -14.2519c0.301,-0.0753 0.6773,-0.1459 1.1288,-0.2117 0.4516,-0.0659 0.936,-0.1223 1.4534,-0.1693 0.5174,-0.0471 1.0583,-0.0847 1.6228,-0.1129 0.5644,-0.0282 1.1194,-0.0424 1.6651,-0.0424 1.9943,0 3.5465,0.3622 4.6565,1.0866 1.1101,0.7243 1.6651,1.7356 1.6651,3.0338 0,0.6773 -0.1693,1.2794 -0.508,1.8062 -0.3387,0.5268 -0.7808,0.9219 -1.3264,1.1853 0.6773,0.2634 1.2606,0.6773 1.7497,1.2417 0.4892,0.5645 0.7338,1.3641 0.7338,2.3989 0,1.4863 -0.5833,2.6293 -1.7497,3.4289 -1.1665,0.7996 -2.9069,1.1994 -5.221,1.1994zm0.0846 -9.1156c0.8467,0 1.5475,-0.1223 2.1025,-0.3668 0.5551,-0.2446 0.8326,-0.7338 0.8326,-1.4676 0,-0.3574 -0.0894,-0.6491 -0.2681,-0.8748 -0.1788,-0.2258 -0.4187,-0.4045 -0.7197,-0.5362 -0.301,-0.1317 -0.6491,-0.2211 -1.0442,-0.2681 -0.3951,-0.0471 -0.809,-0.0706 -1.2417,-0.0706 -0.3387,0 -0.7291,0.0094 -1.1712,0.0282 -0.4422,0.0188 -0.7949,0.0471 -1.0583,0.0847l0 3.4712 2.5681 0zm-2.5681 6.2935c0.2257,0.0376 0.5973,0.0705 1.1147,0.0987 0.5174,0.0283 1.0019,0.0424 1.4534,0.0424 1.016,0 1.8579,-0.1411 2.5259,-0.4234 0.6679,-0.2822 1.0018,-0.8184 1.0018,-1.6086 0,-0.7714 -0.3057,-1.3029 -0.9172,-1.5945 -0.6114,-0.2916 -1.4064,-0.4374 -2.3847,-0.4374l-2.7939 0 0 3.9228zm16.1145 2.5399l-3.4148 0 0 -14.7599 3.4148 0 0 14.7599zm0.3669 -19.0778c0,0.6397 -0.207,1.1477 -0.6209,1.524 -0.4139,0.3763 -0.9031,0.5644 -1.4675,0.5644 -0.5833,0 -1.0818,-0.1881 -1.4958,-0.5644 -0.4139,-0.3763 -0.6208,-0.8843 -0.6208,-1.524 0,-0.6585 0.2069,-1.1759 0.6208,-1.5522 0.414,-0.3763 0.9125,-0.5644 1.4958,-0.5644 0.5644,0 1.0536,0.1881 1.4675,0.5644 0.4139,0.3763 0.6209,0.8937 0.6209,1.5522zm22.9441 19.0778l-3.4148 0 0 -6.1805 -5.5596 0 0 6.1805 -3.4148 0 0 -14.7599 3.4148 0 0 5.7572 5.5596 0 0 -5.7572 3.4148 0 0 14.7599zm9.5389 -2.3988c1.0536,0 1.8533,-0.0565 2.3989,-0.1694l0 -3.7817c-0.1882,-0.0564 -0.461,-0.1128 -0.8185,-0.1693 -0.3574,-0.0564 -0.7525,-0.0847 -1.1853,-0.0847 -0.3762,0 -0.7572,0.0283 -1.1429,0.0847 -0.3857,0.0565 -0.7338,0.1599 -1.0442,0.3104 -0.3105,0.1506 -0.5598,0.3622 -0.7479,0.635 -0.1882,0.2728 -0.2822,0.6162 -0.2822,1.0301 0,0.809 0.254,1.3688 0.762,1.6792 0.5079,0.3104 1.1947,0.4657 2.0601,0.4657zm-0.2822 -12.728c1.1289,0 2.079,0.1411 2.8504,0.4233 0.7714,0.2823 1.3876,0.6774 1.8485,1.1854 0.461,0.5079 0.7902,1.1241 0.9878,1.8485 0.1975,0.7243 0.2963,1.5192 0.2963,2.3847l0 8.9462c-0.5268,0.1129 -1.3217,0.2493 -2.3847,0.4093 -1.063,0.1599 -2.2625,0.2398 -3.5983,0.2398 -0.8843,0 -1.6933,-0.0846 -2.427,-0.254 -0.7338,-0.1693 -1.3594,-0.4421 -1.8768,-0.8184 -0.5174,-0.3763 -0.9219,-0.8654 -1.2135,-1.4675 -0.2916,-0.6021 -0.4374,-1.3452 -0.4374,-2.2295 0,-0.8467 0.1646,-1.5616 0.4938,-2.1449 0.3293,-0.5832 0.7761,-1.0583 1.3406,-1.4251 0.5644,-0.3669 1.2182,-0.6303 1.9614,-0.7902 0.7431,-0.16 1.5192,-0.2399 2.3283,-0.2399 0.3762,0 0.7713,0.0235 1.1853,0.0705 0.4139,0.0471 0.856,0.127 1.3264,0.2399l0 -0.5644c0,-0.3951 -0.0471,-0.7714 -0.1411,-1.1289 -0.0941,-0.3575 -0.2587,-0.6726 -0.4939,-0.9454 -0.2352,-0.2728 -0.5456,-0.4845 -0.9313,-0.635 -0.3857,-0.1505 -0.8702,-0.2258 -1.4534,-0.2258 -0.7902,0 -1.5146,0.0565 -2.1731,0.1694 -0.6585,0.1128 -1.1947,0.2445 -1.6086,0.3951l-0.4234 -2.7658c0.4328,-0.1505 1.0631,-0.301 1.8909,-0.4515 0.8278,-0.1505 1.7121,-0.2258 2.6528,-0.2258zm26.5283 7.8174c0,-1.524 -0.3434,-2.7093 -1.0301,-3.5559 -0.6868,-0.8467 -1.7921,-1.27 -3.3161,-1.27 -0.3198,0 -0.6538,0.0141 -1.0018,0.0423 -0.3481,0.0283 -0.6915,0.0894 -1.0301,0.1835l0 8.4382c0.301,0.207 0.7008,0.3998 1.1994,0.5786 0.4986,0.1787 1.0301,0.2681 1.5945,0.2681 1.2418,0 2.1496,-0.4233 2.7234,-1.27 0.5738,-0.8466 0.8608,-1.9849 0.8608,-3.4148zm3.4994 -0.0564c0,1.1288 -0.1458,2.1636 -0.4374,3.1043 -0.2916,0.9408 -0.7102,1.7498 -1.2559,2.4271 -0.5456,0.6773 -1.2276,1.2041 -2.046,1.5804 -0.8185,0.3763 -1.7451,0.5644 -2.7799,0.5644 -0.6961,0 -1.3358,-0.0846 -1.919,-0.254 -0.5833,-0.1693 -1.063,-0.3574 -1.4393,-0.5644l0 5.729 -3.4148 0 0 -19.5011c0.6961,-0.1882 1.5522,-0.3669 2.5681,-0.5362 1.016,-0.1694 2.0884,-0.254 3.2173,-0.254 1.1665,0 2.2107,0.1787 3.1326,0.5362 0.9219,0.3574 1.7074,0.8701 2.3565,1.5381 0.6491,0.6679 1.1477,1.4769 1.4957,2.427 0.3481,0.9501 0.5221,2.0179 0.5221,3.2032zm16.4533 -7.3941l0 14.7599 -3.3866 0c0,-1.0724 0.0047,-2.1354 0.0141,-3.189 0.0094,-1.0536 0.0188,-2.032 0.0282,-2.9351 0.0094,-0.9031 0.0188,-1.6886 0.0282,-2.3565 0.0094,-0.6679 0.0141,-1.1618 0.0141,-1.4816 -0.5644,0.7337 -1.1476,1.5428 -1.7497,2.427 -0.6021,0.8843 -1.1994,1.7686 -1.7921,2.6529 -0.5926,0.8842 -1.1524,1.7497 -1.6792,2.5964 -0.5268,0.8466 -0.9877,1.6086 -1.3828,2.2859l-3.0197 0 0 -14.7599 3.3583 0c0,1.0912 -0.0047,2.1307 -0.0141,3.1185 -0.0094,0.9877 -0.0141,1.8861 -0.0141,2.6952 0,0.809 -0.0047,1.5145 -0.0141,2.1166 -0.0094,0.602 -0.0141,1.063 -0.0141,1.3828 0.5268,-0.809 1.0724,-1.6415 1.6368,-2.4976 0.5645,-0.856 1.1336,-1.6933 1.7074,-2.5117 0.5739,-0.8184 1.143,-1.5945 1.7075,-2.3283 0.5644,-0.7337 1.11,-1.3923 1.6368,-1.9755l2.9351 0zm16.7353 14.7599l-3.4148 0 0 -6.1805 -5.5596 0 0 6.1805 -3.4148 0 0 -14.7599 3.4148 0 0 5.7572 5.5596 0 0 -5.7572 3.4148 0 0 14.7599zm7.761 -8.8334c0.4327,-0.4327 0.9031,-0.9172 1.4111,-1.4534 0.5079,-0.5362 1.0112,-1.0771 1.5098,-1.6227 0.4986,-0.5456 0.9737,-1.0677 1.4252,-1.5663 0.4515,-0.4986 0.8278,-0.9266 1.1289,-1.2841l4.0074 0c-0.4139,0.4892 -0.8889,1.0254 -1.4252,1.6086 -0.5362,0.5833 -1.0912,1.1806 -1.665,1.7921 -0.5739,0.6115 -1.1383,1.2041 -1.6933,1.778 -0.5551,0.5738 -1.0583,1.0865 -1.5099,1.538 0.5833,0.4892 1.19,1.0584 1.8203,1.7075 0.6303,0.649 1.2512,1.3358 1.8626,2.0601 0.6115,0.7244 1.1806,1.4581 1.7074,2.2013 0.5268,0.7432 0.969,1.4346 1.3265,2.0743l-3.9511 0c-0.3574,-0.5644 -0.7761,-1.1571 -1.2558,-1.778 -0.4798,-0.6208 -0.9831,-1.2276 -1.5099,-1.8203 -0.5268,-0.5926 -1.063,-1.1523 -1.6086,-1.6791 -0.5456,-0.5268 -1.0724,-0.9784 -1.5804,-1.3547l0 6.6321 -3.4148 0 0 -14.7599 3.4148 0 0 5.9265zm24.4399 -5.9265c-1.524,5.6067 -3.2925,10.6866 -5.3057,15.2397 -0.3763,0.8466 -0.762,1.571 -1.1571,2.173 -0.3951,0.6021 -0.8372,1.1007 -1.3264,1.4958 -0.4891,0.3951 -1.0348,0.682 -1.6368,0.8607 -0.6021,0.1788 -1.2982,0.2681 -2.0884,0.2681 -0.5268,0 -1.0489,-0.0564 -1.5663,-0.1693 -0.5174,-0.1129 -0.9078,-0.2352 -1.1712,-0.3669l0.6209 -2.7375c0.6773,0.2634 1.3452,0.3951 2.0037,0.3951 0.8843,0 1.5757,-0.2116 2.0743,-0.635 0.4986,-0.4233 0.936,-1.0771 1.3123,-1.9614 -1.0724,-2.0695 -2.1025,-4.3273 -3.0903,-6.7731 -0.9877,-2.4459 -1.8673,-5.0423 -2.6387,-7.7892l3.6406 0c0.1881,0.7902 0.4186,1.6463 0.6914,2.5682 0.2728,0.9219 0.5691,1.8579 0.889,2.808 0.3198,0.9501 0.6585,1.8956 1.016,2.8363 0.3574,0.9407 0.7149,1.8156 1.0724,2.6246 0.602,-1.6745 1.1665,-3.4571 1.6933,-5.348 0.5268,-1.8908 1.0066,-3.7205 1.4393,-5.4891l3.5277 0z"/>
   <ellipse id="_127405400" class="fil3" cx="60.2947" cy="25.5267" rx="8.36188" ry="8.96848"/>
   <path id="_127121360" class="fil2" d="M60.2947 15.0582c2.7405,0 5.2181,1.1878 7.0081,3.1076 1.7631,1.8909 2.8538,4.4944 2.8538,7.3609 0,2.8665 -1.0907,5.47 -2.8538,7.3609 -1.79,1.9198 -4.2676,3.1076 -7.0081,3.1076 -2.7404,0 -5.2182,-1.1877 -7.0082,-3.1076 -1.763,-1.8909 -2.8537,-4.4942 -2.8537,-7.3609 0,-2.8667 1.0907,-5.47 2.8537,-7.3609 1.79,-1.9199 4.2678,-3.1076 7.0082,-3.1076zm4.8167 5.1466c-1.2364,-1.326 -2.9399,-2.1466 -4.8167,-2.1466 -1.8769,0 -3.5804,0.8205 -4.8168,2.1466 -1.2634,1.3551 -2.0451,3.2363 -2.0451,5.3219 0,2.0856 0.7817,3.9668 2.0451,5.3219 1.2364,1.3261 2.9399,2.1466 4.8168,2.1466 1.8768,0 3.5803,-0.8206 4.8167,-2.1466 1.2636,-1.3551 2.0452,-3.2364 2.0452,-5.3219 0,-2.0855 -0.7816,-3.9668 -2.0452,-5.3219z"/>
   <rect id="_127433696" class="fil0" x="42.7347" y="26.9536" width="35.1199" height="35.1199"/>
   <path id="_127120904" class="fil2" d="M42.7347 25.9536l35.1199 0 1 0 0 1 0 35.1199 0 1 -1 0 -35.1199 0 -1 0 0 -1 0 -35.1199 0 -1 1 0zm34.1199 2l-33.1199 0 0 33.1199 33.1199 0 0 -33.1199z"/>
   <path id="_127118600" class="fil2" d="M49.1755 46.6027c0.2502,-0.2193 0.5892,-0.4754 1.0168,-0.7684 0.4278,-0.293 0.9226,-0.5721 1.4846,-0.8376 0.5289,-0.2498 1.0052,-0.3864 1.429,-0.4096 0.4236,-0.0233 0.8023,0.0456 1.136,0.2063 0.3338,0.1608 0.6308,0.4046 0.8914,0.7314 0.2605,0.3268 0.4941,0.7092 0.701,1.1472l1.7215 3.6447 -1.5 0.7085 -1.6103 -3.4091c-0.1639,-0.3472 -0.3262,-0.6319 -0.4868,-0.8542 -0.1606,-0.2223 -0.3287,-0.3856 -0.5042,-0.4897 -0.1755,-0.1041 -0.3687,-0.1493 -0.5796,-0.1356 -0.2108,0.0137 -0.4444,0.081 -0.7006,0.202 -0.1901,0.0898 -0.3826,0.1959 -0.5775,0.3182 -0.1949,0.1225 -0.338,0.2153 -0.4294,0.2787l2.471 5.2315 -1.5 0.7085 -2.9629 -6.2728zm8.339 -0.1936c-0.2693,-0.5703 -0.4208,-1.1103 -0.4544,-1.6201 -0.0336,-0.5098 0.0229,-0.9736 0.1692,-1.3914 0.1463,-0.4178 0.3671,-0.785 0.6625,-1.1014 0.2953,-0.3164 0.633,-0.5644 1.0132,-0.744 0.8926,-0.4215 1.7197,-0.4736 2.4812,-0.156 0.7615,0.3176 1.4019,1.0259 1.9211,2.1252 0.0391,0.0826 0.0809,0.1766 0.1255,0.2818 0.0447,0.1053 0.0824,0.2012 0.1132,0.2877l-4.2769 2.0201c0.2872,0.5011 0.6614,0.8172 1.1226,0.9482 0.4611,0.1309 1.0016,0.05 1.6214,-0.2427 0.3637,-0.1718 0.6806,-0.362 0.9511,-0.5706 0.2705,-0.2086 0.4749,-0.3911 0.6133,-0.5475l0.7781 1.1336c-0.0632,0.0804 -0.1563,0.1775 -0.2795,0.2913 -0.1232,0.1137 -0.2689,0.2331 -0.4373,0.3582 -0.1684,0.1249 -0.3542,0.2506 -0.5573,0.3769 -0.2033,0.1263 -0.4164,0.2421 -0.6396,0.3475 -0.5702,0.2693 -1.1061,0.4188 -1.6076,0.4486 -0.5015,0.0296 -0.9599,-0.042 -1.3751,-0.2148 -0.4152,-0.1728 -0.7855,-0.4326 -1.111,-0.7793 -0.3255,-0.3465 -0.6034,-0.7637 -0.8337,-1.2513zm4.0352 -2.7247c-0.0976,-0.2066 -0.2193,-0.3893 -0.365,-0.5478 -0.1457,-0.1587 -0.3065,-0.2798 -0.4825,-0.3635 -0.176,-0.0836 -0.3631,-0.1267 -0.5613,-0.1291 -0.1982,-0.0024 -0.4089,0.0491 -0.6321,0.1545 -0.2314,0.1093 -0.4134,0.2483 -0.546,0.4171 -0.1326,0.1688 -0.2255,0.3517 -0.279,0.5488 -0.0536,0.1971 -0.0704,0.4022 -0.0506,0.6152 0.0198,0.213 0.0622,0.4205 0.1271,0.6223l2.7894 -1.3175zm6.8609 -3.4833c0.1534,0.8172 0.2836,1.6224 0.3905,2.4159 0.107,0.7936 0.1975,1.5469 0.2714,2.26l-1.2273 0.5797c-0.3448,-0.3021 -0.7233,-0.654 -1.1354,-1.0558 -0.4122,-0.4017 -0.84,-0.8365 -1.2833,-1.3044 -0.4433,-0.4678 -0.9003,-0.9646 -1.3711,-1.4903 -0.4707,-0.5257 -0.9431,-1.0657 -1.4172,-1.6201l1.5868 -0.7495c0.2383,0.312 0.5017,0.6449 0.7903,0.9989 0.2885,0.354 0.585,0.7144 0.8895,1.0809 0.3046,0.3667 0.6084,0.721 0.9115,1.0631 0.3031,0.342 0.5906,0.651 0.8624,0.9269 -0.0555,-0.4387 -0.1191,-0.8888 -0.1906,-1.3504 -0.0713,-0.4616 -0.1491,-0.9202 -0.2328,-1.376 -0.0839,-0.4556 -0.169,-0.8981 -0.2555,-1.3273 -0.0865,-0.4292 -0.1725,-0.8308 -0.2582,-1.2047l1.1529 -0.5446c0.2344,0.3037 0.4878,0.6263 0.7603,0.9676 0.2724,0.3414 0.5559,0.6902 0.8505,1.0463 0.2946,0.3562 0.5974,0.7085 0.9085,1.0568 0.3112,0.3484 0.6185,0.6834 0.922,1.005 -0.0487,-0.3813 -0.1089,-0.7977 -0.1805,-1.2491 -0.0717,-0.4513 -0.1504,-0.912 -0.2359,-1.3821 -0.0855,-0.47 -0.1735,-0.9289 -0.2636,-1.3766 -0.0901,-0.4477 -0.1799,-0.8626 -0.2696,-1.2448l1.5497 -0.732c0.127,0.7184 0.244,1.4262 0.3511,2.1237 0.1071,0.6975 0.2004,1.3661 0.2801,2.0056 0.0797,0.6396 0.1438,1.2462 0.1924,1.8196 0.0485,0.5736 0.0757,1.0914 0.0817,1.5535l-1.2149 0.5739c-0.5037,-0.5102 -1.0322,-1.0566 -1.5855,-1.6393 -0.5532,-0.5828 -1.0966,-1.1928 -1.6302,-1.8304z"/>
  </g>
 </g>
</svg>
