<?xml version="1.0" encoding="UTF-8"?>
<!DOCTYPE svg PUBLIC "-//W3C//DTD SVG 1.1//EN" "http://www.w3.org/Graphics/SVG/1.1/DTD/svg11.dtd">
<!-- Creator: CorelDRAW -->
<svg xmlns="http://www.w3.org/2000/svg" xml:space="preserve" width="100%" height="100%" style="shape-rendering:geometricPrecision; text-rendering:geometricPrecision; image-rendering:optimizeQuality; fill-rule:evenodd; clip-rule:evenodd"
viewBox="0 0 33.1 8.6"
 xmlns:xlink="http://www.w3.org/1999/xlink">
 <defs>
  <style type="text/css">
   <![CDATA[
    .str2 {stroke:#1F1A17;stroke-width:0.2}
    .str0 {stroke:#AAABAE;stroke-width:0.2}
    .str1 {stroke:#1F1A17;stroke-width:0.3}
    .fil2 {fill:none}
    .fil0 {fill:white}
    .fil1 {fill:#1F1A17;fill-rule:nonzero}
   ]]>
  </style>
 </defs>
 <g id="Слой_x0020_1">
  <metadata id="CorelCorpID_0Corel-Layer"/>
  <path class="fil0 str0" d="M1.46005 0.15l30.1799 0c0.55804,0 1.26789,0.72704 1.26789,1.6144l0 5.07121c0,0.88737 -0.71038,1.61439 -1.26789,1.61439l-30.1799 0c-0.55752,0 -1.26789,-0.72646 -1.26789,-1.61439l0 -5.07121c0,-0.88792 0.70985,-1.6144 1.26789,-1.6144z"/>
  <g id="_127128248">
   <polygon id="_125217536" class="fil1" points="13.0599,5.04125 12.7894,5.04125 12.7894,4.55161 12.349,4.55161 12.349,5.04125 12.0784,5.04125 12.0784,3.87192 12.349,3.87192 12.349,4.32802 12.7894,4.32802 12.7894,3.87192 13.0599,3.87192 "/>
   <path id="_1252175361" class="fil1" d="M14.4618 4.45547c0,0.09241 -0.01341,0.17662 -0.04024,0.25264 -0.02683,0.07602 -0.06484,0.14086 -0.11403,0.19452 -0.04919,0.05366 -0.10844,0.09539 -0.17775,0.12521 -0.06931,0.02981 -0.1457,0.04471 -0.22917,0.04471 -0.08347,0 -0.15949,-0.0149 -0.22805,-0.04471 -0.06857,-0.02982 -0.12745,-0.07155 -0.17663,-0.12521 -0.04919,-0.05366 -0.08757,-0.1185 -0.11515,-0.19452 -0.02757,-0.07602 -0.04136,-0.16023 -0.04136,-0.25264 0,-0.09242 0.01379,-0.17626 0.04136,-0.25153 0.02758,-0.07528 0.06633,-0.13974 0.11626,-0.1934 0.04994,-0.05366 0.10919,-0.09503 0.17775,-0.12409 0.06857,-0.02907 0.14384,-0.0436 0.22582,-0.0436 0.08198,0 0.15763,0.01453 0.22694,0.0436 0.06931,0.02906 0.12856,0.07043 0.17774,0.12409 0.04919,0.05366 0.08757,0.11812 0.11515,0.1934 0.02757,0.07527 0.04136,0.15911 0.04136,0.25153zm-0.27724 0c0,-0.11627 -0.02497,-0.20831 -0.0749,-0.27613 -0.04993,-0.06782 -0.11962,-0.10173 -0.20905,-0.10173 -0.08943,0 -0.15912,0.03391 -0.20905,0.10173 -0.04993,0.06782 -0.0749,0.15986 -0.0749,0.27613 0,0.11775 0.02497,0.21091 0.0749,0.27947 0.04993,0.06857 0.11962,0.10285 0.20905,0.10285 0.08943,0 0.15912,-0.03428 0.20905,-0.10285 0.04993,-0.06856 0.0749,-0.16172 0.0749,-0.27947z"/>
   <path id="_12521753612" class="fil1" d="M15.2063 5.06361c-0.04323,0 -0.0872,-0.00149 -0.13191,-0.00447 -0.04472,-0.00298 -0.08757,-0.00671 -0.12856,-0.01118 -0.04099,-0.00447 -0.07938,-0.00932 -0.11515,-0.01454 -0.03577,-0.00521 -0.06558,-0.0108 -0.08943,-0.01676l0 -1.12909c0.02385,-0.00597 0.05366,-0.01155 0.08943,-0.01677 0.03577,-0.00522 0.07416,-0.00969 0.11515,-0.01342 0.04099,-0.00372 0.08384,-0.0067 0.12856,-0.00894 0.04471,-0.00224 0.08868,-0.00335 0.13191,-0.00335 0.158,0 0.28097,0.02869 0.36891,0.08608 0.08794,0.05738 0.13191,0.1375 0.13191,0.24035 0,0.05366 -0.01341,0.10135 -0.04024,0.14309 -0.02683,0.04173 -0.06186,0.07304 -0.10509,0.0939 0.05366,0.02087 0.09987,0.05366 0.13862,0.09838 0.03876,0.04472 0.05814,0.10806 0.05814,0.19004 0,0.11776 -0.04621,0.20831 -0.13862,0.27166 -0.09242,0.06334 -0.23029,0.09502 -0.41363,0.09502zm0.00671 -0.72217c0.06707,0 0.12259,-0.00969 0.16656,-0.02907 0.04398,-0.01937 0.06596,-0.05813 0.06596,-0.11626 0,-0.02832 -0.00708,-0.05142 -0.02124,-0.06931 -0.01416,-0.01789 -0.03316,-0.03205 -0.05701,-0.04248 -0.02385,-0.01043 -0.05143,-0.01751 -0.08273,-0.02124 -0.0313,-0.00373 -0.06409,-0.00559 -0.09837,-0.00559 -0.02683,0 -0.05776,0.00074 -0.09279,0.00224 -0.03503,0.00149 -0.06298,0.00372 -0.08384,0.0067l0 0.27501 0.20346 0zm-0.20346 0.49859c0.01788,0.00298 0.04732,0.00559 0.08831,0.00782 0.04099,0.00224 0.07937,0.00336 0.11515,0.00336 0.08049,0 0.14719,-0.01118 0.2001,-0.03354 0.05292,-0.02236 0.07937,-0.06484 0.07937,-0.12744 0,-0.06112 -0.02422,-0.10322 -0.07266,-0.12633 -0.04844,-0.0231 -0.11142,-0.03465 -0.18893,-0.03465l-0.22134 0 0 0.31078z"/>
   <path id="_125217536123" class="fil1" d="M16.2862 5.04125l-0.27054 0 0 -1.16933 0.27054 0 0 1.16933zm0.02906 -1.51141c0,0.05067 -0.01639,0.09092 -0.04918,0.12073 -0.0328,0.02981 -0.07155,0.04472 -0.11627,0.04472 -0.0462,0 -0.0857,-0.01491 -0.1185,-0.04472 -0.03279,-0.02981 -0.04918,-0.07006 -0.04918,-0.12073 0,-0.05217 0.01639,-0.09316 0.04918,-0.12297 0.0328,-0.02982 0.0723,-0.04472 0.1185,-0.04472 0.04472,0 0.08347,0.0149 0.11627,0.04472 0.03279,0.02981 0.04918,0.0708 0.04918,0.12297z"/>
   <polygon id="_1252175361234" class="fil1" points="18.133,5.04125 17.8625,5.04125 17.8625,4.55161 17.422,4.55161 17.422,5.04125 17.1515,5.04125 17.1515,3.87192 17.422,3.87192 17.422,4.32802 17.8625,4.32802 17.8625,3.87192 18.133,3.87192 "/>
   <path id="_12521753612345" class="fil1" d="M18.8887 4.85121c0.08347,0 0.14682,-0.00448 0.19004,-0.01342l0 -0.2996c-0.0149,-0.00447 -0.03651,-0.00894 -0.06484,-0.01341 -0.02832,-0.00448 -0.05962,-0.00671 -0.0939,-0.00671 -0.02981,0 -0.05999,0.00223 -0.09055,0.00671 -0.03056,0.00447 -0.05813,0.01267 -0.08273,0.02459 -0.02459,0.01192 -0.04434,0.02869 -0.05924,0.05031 -0.01491,0.02161 -0.02236,0.04881 -0.02236,0.0816 0,0.0641 0.02012,0.10844 0.06036,0.13303 0.04025,0.0246 0.09465,0.0369 0.16322,0.0369zm-0.02236 -1.00836c0.08943,0 0.16471,0.01118 0.22582,0.03354 0.06111,0.02236 0.10993,0.05366 0.14644,0.0939 0.03652,0.04025 0.06261,0.08906 0.07826,0.14645 0.01565,0.05738 0.02347,0.12036 0.02347,0.18893l0 0.70875c-0.04173,0.00894 -0.10471,0.01975 -0.18892,0.03242 -0.08422,0.01267 -0.17924,0.019 -0.28507,0.019 -0.07005,0 -0.13415,-0.0067 -0.19228,-0.02012 -0.05813,-0.01341 -0.10769,-0.03503 -0.14868,-0.06484 -0.04099,-0.02981 -0.07304,-0.06856 -0.09614,-0.11626 -0.02311,-0.0477 -0.03466,-0.10657 -0.03466,-0.17663 0,-0.06707 0.01305,-0.12371 0.03913,-0.16992 0.02608,-0.04621 0.06148,-0.08385 0.1062,-0.11291 0.04472,-0.02907 0.09651,-0.04993 0.15539,-0.0626 0.05888,-0.01267 0.12036,-0.01901 0.18446,-0.01901 0.02981,0 0.06111,0.00186 0.0939,0.00559 0.03279,0.00373 0.06782,0.01006 0.10508,0.01901l0 -0.04472c0,-0.0313 -0.00372,-0.06111 -0.01118,-0.08943 -0.00745,-0.02832 -0.02049,-0.05329 -0.03912,-0.0749 -0.01863,-0.02162 -0.04323,-0.03838 -0.07378,-0.05031 -0.03056,-0.01192 -0.06894,-0.01789 -0.11515,-0.01789 -0.0626,0 -0.11999,0.00448 -0.17216,0.01342 -0.05217,0.00894 -0.09465,0.01938 -0.12744,0.0313l-0.03354 -0.21911c0.03429,-0.01192 0.08422,-0.02385 0.1498,-0.03577 0.06559,-0.01193 0.13564,-0.01789 0.21017,-0.01789z"/>
   <path id="_125217536123456" class="fil1" d="M20.9681 4.46217c0,-0.12073 -0.0272,-0.21464 -0.08161,-0.28171 -0.0544,-0.06708 -0.14197,-0.10061 -0.26271,-0.10061 -0.02534,0 -0.0518,0.00112 -0.07937,0.00335 -0.02758,0.00224 -0.05478,0.00708 -0.08161,0.01453l0 0.66851c0.02385,0.0164 0.05553,0.03168 0.09502,0.04584 0.0395,0.01416 0.08161,0.02124 0.12633,0.02124 0.09837,0 0.17029,-0.03354 0.21576,-0.10061 0.04546,-0.06708 0.06819,-0.15726 0.06819,-0.27054zm0.27724 -0.00447c0,0.08943 -0.01155,0.17141 -0.03466,0.24594 -0.0231,0.07453 -0.05626,0.13862 -0.09949,0.19228 -0.04323,0.05366 -0.09726,0.0954 -0.1621,0.12521 -0.06484,0.02981 -0.13824,0.04471 -0.22023,0.04471 -0.05515,0 -0.10582,-0.0067 -0.15203,-0.02012 -0.04621,-0.01341 -0.08422,-0.02832 -0.11403,-0.04471l0 0.45387 -0.27053 0 0 -1.54495c0.05515,-0.01491 0.12297,-0.02907 0.20346,-0.04249 0.08049,-0.01341 0.16545,-0.02012 0.25488,-0.02012 0.09242,0 0.17514,0.01416 0.24818,0.04248 0.07303,0.02832 0.13526,0.06894 0.18669,0.12185 0.05142,0.05292 0.09092,0.11701 0.1185,0.19229 0.02757,0.07527 0.04136,0.15986 0.04136,0.25376z"/>
   <path id="_1252175361234567" class="fil1" d="M22.5488 3.87192l0 1.16933 -0.26829 0c0,-0.08496 0.00037,-0.16918 0.00111,-0.25265 0.00075,-0.08347 0.00149,-0.16098 0.00224,-0.23252 0.00074,-0.07155 0.00149,-0.13378 0.00223,-0.18669 0.00075,-0.05292 0.00112,-0.09205 0.00112,-0.11738 -0.04471,0.05813 -0.09092,0.12222 -0.13862,0.19228 -0.0477,0.07005 -0.09502,0.14011 -0.14197,0.21016 -0.04695,0.07006 -0.0913,0.13862 -0.13303,0.2057 -0.04174,0.06707 -0.07826,0.12744 -0.10956,0.1811l-0.23923 0 0 -1.16933 0.26606 0c0,0.08645 -0.00037,0.1688 -0.00112,0.24705 -0.00074,0.07826 -0.00112,0.14943 -0.00112,0.21353 0,0.06409 -0.00037,0.11998 -0.00111,0.16768 -0.00075,0.0477 -0.00112,0.08422 -0.00112,0.10956 0.04173,-0.0641 0.08496,-0.13005 0.12968,-0.19787 0.04471,-0.06782 0.0898,-0.13415 0.13526,-0.19899 0.04547,-0.06484 0.09055,-0.12633 0.13527,-0.18446 0.04472,-0.05813 0.08794,-0.1103 0.12968,-0.1565l0.23252 0z"/>
   <polygon id="_12521753612345678" class="fil1" points="23.8746,5.04125 23.6041,5.04125 23.6041,4.55161 23.1636,4.55161 23.1636,5.04125 22.8931,5.04125 22.8931,3.87192 23.1636,3.87192 23.1636,4.32802 23.6041,4.32802 23.6041,3.87192 23.8746,3.87192 "/>
   <path id="_125217536123456789" class="fil1" d="M24.4895 4.34144c0.03428,-0.03428 0.07155,-0.07267 0.11179,-0.11515 0.04025,-0.04248 0.08012,-0.08533 0.11962,-0.12856 0.0395,-0.04322 0.07714,-0.08458 0.11291,-0.12408 0.03577,-0.0395 0.06558,-0.07341 0.08943,-0.10173l0.31749 0c-0.03279,0.03875 -0.07043,0.08123 -0.11291,0.12744 -0.04248,0.0462 -0.08645,0.09353 -0.13191,0.14197 -0.04547,0.04845 -0.09018,0.0954 -0.13415,0.14086 -0.04397,0.04546 -0.08385,0.08608 -0.11962,0.12185 0.04621,0.03876 0.09428,0.08384 0.14421,0.13527 0.04993,0.05142 0.09912,0.10583 0.14756,0.16321 0.04845,0.05739 0.09354,0.11552 0.13527,0.1744 0.04174,0.05887 0.07676,0.11365 0.10509,0.16433l-0.31302 0c-0.02832,-0.04472 -0.06148,-0.09167 -0.09949,-0.14086 -0.03801,-0.04918 -0.07788,-0.09725 -0.11962,-0.14421 -0.04174,-0.04695 -0.08422,-0.09129 -0.12744,-0.13303 -0.04323,-0.04173 -0.08496,-0.07751 -0.12521,-0.10732l0 0.52542 -0.27053 0 0 -1.16933 0.27053 0 0 0.46952z"/>
   <path id="_12521753612345678910" class="fil1" d="M26.4257 3.87192c-0.12073,0.44418 -0.26084,0.84663 -0.42033,1.20734 -0.02981,0.06707 -0.06037,0.12446 -0.09167,0.17216 -0.0313,0.04769 -0.06633,0.08719 -0.10508,0.1185 -0.03876,0.0313 -0.08198,0.05403 -0.12968,0.06819 -0.0477,0.01416 -0.10285,0.02124 -0.16545,0.02124 -0.04174,0 -0.0831,-0.00447 -0.12409,-0.01342 -0.04099,-0.00894 -0.07192,-0.01863 -0.09279,-0.02906l0.04919 -0.21688c0.05366,0.02087 0.10658,0.0313 0.15875,0.0313 0.07005,0 0.12483,-0.01676 0.16433,-0.0503 0.0395,-0.03354 0.07415,-0.08534 0.10396,-0.15539 -0.08496,-0.16396 -0.16656,-0.34283 -0.24482,-0.5366 -0.07825,-0.19377 -0.14794,-0.39946 -0.20905,-0.61708l0.28842 0c0.01491,0.0626 0.03317,0.13042 0.05478,0.20346 0.02161,0.07303 0.04509,0.14719 0.07043,0.22246 0.02534,0.07527 0.05217,0.15017 0.08049,0.2247 0.02832,0.07453 0.05664,0.14384 0.08496,0.20793 0.0477,-0.13266 0.09241,-0.27389 0.13415,-0.42369 0.04173,-0.1498 0.07974,-0.29475 0.11403,-0.43486l0.27947 0z"/>
   <path id="_127127000" class="fil2 str1" d="M8.06552 2.11747c0.36581,0 0.66248,0.31817 0.66248,0.71053 0,0.03849 -0.00292,0.0762 -0.00841,0.11303l-1.30812 0c-0.00549,-0.03683 -0.00841,-0.07454 -0.00841,-0.11303 0,-0.39236 0.29665,-0.71053 0.66246,-0.71053z"/>
   <rect id="_127430120" class="fil0 str2" x="6.67433" y="2.94104" width="2.78239" height="2.78239"/>
   <path id="_125217248" class="fil1" d="M7.18465 4.49775c0.01983,-0.01738 0.04667,-0.03766 0.08056,-0.06087 0.03388,-0.02321 0.07308,-0.04533 0.1176,-0.06636 0.0419,-0.01979 0.07964,-0.03061 0.11321,-0.03245 0.03356,-0.00184 0.06357,0.00361 0.09,0.01635 0.02643,0.01274 0.04997,0.03204 0.07061,0.05794 0.02063,0.02589 0.03915,0.05618 0.05554,0.09087l0.13638 0.28875 -0.11884 0.05613 -0.12756 -0.27008c-0.01299,-0.0275 -0.02585,-0.05006 -0.03857,-0.06767 -0.01272,-0.01762 -0.02604,-0.03055 -0.03994,-0.03879 -0.01391,-0.00825 -0.02921,-0.01183 -0.04592,-0.01075 -0.01671,0.00109 -0.03521,0.00643 -0.0555,0.01601 -0.01506,0.00711 -0.03031,0.01552 -0.04575,0.02522 -0.01544,0.00969 -0.02679,0.01705 -0.03402,0.02207l0.19576 0.41444 -0.11884 0.05613 -0.23472 -0.49694z"/>
   <path id="_1252172481" class="fil1" d="M7.84527 4.48241c-0.02133,-0.04517 -0.03333,-0.08796 -0.03599,-0.12834 -0.00266,-0.04039 0.00181,-0.07713 0.01341,-0.11023 0.01158,-0.03311 0.02907,-0.06219 0.05247,-0.08725 0.02339,-0.02507 0.05016,-0.04472 0.08028,-0.05894 0.07071,-0.0334 0.13622,-0.03752 0.19656,-0.01237 0.06033,0.02516 0.11105,0.08128 0.15219,0.16836 0.00309,0.00655 0.00641,0.014 0.00995,0.02233 0.00354,0.00834 0.00652,0.01593 0.00896,0.02279l-0.33883 0.16004c0.02276,0.0397 0.0524,0.06474 0.08894,0.07511 0.03653,0.01037 0.07935,0.00397 0.12845,-0.01923 0.02881,-0.0136 0.05392,-0.02867 0.07535,-0.04519 0.02142,-0.01654 0.03762,-0.03099 0.04859,-0.04338l0.06163 0.08981c-0.005,0.00637 -0.01238,0.01405 -0.02213,0.02306 -0.00977,0.00902 -0.02131,0.01848 -0.03465,0.02839 -0.01334,0.00989 -0.02806,0.01985 -0.04416,0.02986 -0.01609,0.01 -0.03297,0.01918 -0.05065,0.02753 -0.04518,0.02134 -0.08763,0.03318 -0.12737,0.03553 -0.03973,0.00235 -0.07604,-0.00332 -0.10894,-0.01702 -0.03289,-0.01369 -0.06222,-0.03426 -0.08801,-0.06172 -0.02578,-0.02747 -0.0478,-0.06051 -0.06605,-0.09914zm0.31968 -0.21585c-0.00773,-0.01637 -0.01737,-0.03084 -0.02891,-0.0434 -0.01155,-0.01258 -0.02429,-0.02218 -0.03823,-0.0288 -0.01394,-0.00663 -0.02876,-0.01003 -0.04447,-0.01022 -0.0157,-0.00019 -0.0324,0.00389 -0.05008,0.01224 -0.01832,0.00865 -0.03274,0.01967 -0.04325,0.03303 -0.01049,0.01338 -0.01787,0.02787 -0.02211,0.04348 -0.00423,0.01562 -0.00556,0.03186 -0.004,0.04874 0.00156,0.01688 0.00492,0.03331 0.01007,0.0493l0.22098 -0.10437z"/>
   <path id="_12521724812" class="fil1" d="M8.70848 3.99061c0.01215,0.06473 0.02247,0.12853 0.03094,0.19139 0.00848,0.06286 0.01564,0.12255 0.0215,0.17904l-0.09723 0.04592c-0.02732,-0.02393 -0.0573,-0.05181 -0.08995,-0.08363 -0.03265,-0.03184 -0.06653,-0.06627 -0.10166,-0.10334 -0.03512,-0.03706 -0.07133,-0.07642 -0.10861,-0.11806 -0.0373,-0.04166 -0.07472,-0.08444 -0.11229,-0.12835l0.12572 -0.05938c0.01887,0.02471 0.03975,0.0511 0.0626,0.07913 0.02286,0.02805 0.04635,0.0566 0.07047,0.08564 0.02413,0.02904 0.0482,0.05711 0.07222,0.08421 0.024,0.0271 0.04677,0.05157 0.06832,0.07344 -0.00441,-0.03476 -0.00945,-0.07043 -0.0151,-0.10699 -0.00566,-0.03657 -0.01182,-0.0729 -0.01846,-0.109 -0.00664,-0.0361 -0.01338,-0.07115 -0.02023,-0.10515 -0.00685,-0.03401 -0.01367,-0.06582 -0.02046,-0.09545l0.09134 -0.04314c0.01857,0.02407 0.03864,0.04962 0.06023,0.07666 0.02158,0.02704 0.04404,0.05467 0.06737,0.08288 0.02334,0.02822 0.04733,0.05613 0.07198,0.08372 0.02465,0.0276 0.049,0.05414 0.07304,0.07962 -0.00386,-0.03021 -0.00862,-0.06319 -0.0143,-0.09895 -0.00568,-0.03575 -0.01191,-0.07225 -0.01869,-0.10949 -0.00677,-0.03724 -0.01374,-0.07359 -0.02088,-0.10906 -0.00714,-0.03546 -0.01426,-0.06834 -0.02135,-0.09862l0.12276 -0.05798c0.01006,0.0569 0.01933,0.11299 0.02781,0.16825 0.00848,0.05525 0.01588,0.10821 0.02219,0.15888 0.00632,0.05067 0.0114,0.09872 0.01524,0.14416 0.00384,0.04543 0.006,0.08645 0.00648,0.12306l-0.09624 0.04546c-0.03991,-0.04041 -0.08178,-0.0837 -0.12561,-0.12987 -0.04382,-0.04616 -0.08688,-0.09449 -0.12915,-0.145z"/>
  </g>
 </g>
</svg>
