<?xml version="1.0" encoding="UTF-8"?>
<!DOCTYPE svg PUBLIC "-//W3C//DTD SVG 1.1//EN" "http://www.w3.org/Graphics/SVG/1.1/DTD/svg11.dtd">
<!-- Creator: CorelDRAW -->
<svg xmlns="http://www.w3.org/2000/svg" xml:space="preserve" width="100%" height="100%" style="shape-rendering:geometricPrecision; text-rendering:geometricPrecision; image-rendering:optimizeQuality; fill-rule:evenodd; clip-rule:evenodd"
viewBox="0 0 33.1 8.6"
 xmlns:xlink="http://www.w3.org/1999/xlink">
 <defs>
  <style type="text/css">
   <![CDATA[
    .fil3 {fill:none}
    .fil0 {fill:white}
    .fil2 {fill:#1F1A17;fill-rule:nonzero}
    .fil1 {fill:#AAABAE;fill-rule:nonzero}
   ]]>
  </style>
 </defs>
 <g id="Слой_x0020_1">
  <metadata id="CorelCorpID_0Corel-Layer"/>
  <path class="fil0" d="M1.41611 0.13791l30.2678 0c0.55967,0 1.27158,0.72915 1.27158,1.6191l0 5.08597c0,0.88997 -0.71244,1.6191 -1.27158,1.6191l-30.2678 0c-0.55914,0 -1.27158,-0.72858 -1.27158,-1.6191l0 -5.08597c0,-0.89051 0.71191,-1.6191 1.27158,-1.6191z"/>
  <path class="fil1" d="M1.41611 0.0383l30.2678 0 0 -0.00039c0.32538,0 0.69277,0.21761 0.96432,0.56337 0.2394,0.30483 0.40726,0.71117 0.40726,1.15573l-0.00039 0 0 5.08597 0.00039 0c0,0.44446 -0.1679,0.85072 -0.40728,1.15552 -0.27163,0.34587 -0.63914,0.56358 -0.9643,0.56358l0 -0.00039 -30.2678 0 0 0.00039c-0.32519,0 -0.69275,-0.2176 -0.9644,-0.56349 -0.23933,-0.30474 -0.40718,-0.71095 -0.40718,-1.15561l0.00039 0 0 -5.08597 -0.00039 0c0,-0.44476 0.16781,-0.85105 0.40715,-1.15581 0.27156,-0.34577 0.63902,-0.56329 0.96443,-0.56329l0 0.00039zm30.2678 0.19922l-30.2678 0 0 0.00039c-0.26501,0 -0.57274,0.18796 -0.80739,0.48673 -0.21409,0.27261 -0.36419,0.63558 -0.36419,1.03237l-0.00039 0 0 5.08597 0.00039 0c0,0.39669 0.15014,0.75958 0.36422,1.03217 0.23474,0.29889 0.54256,0.48693 0.80736,0.48693l0 0.00039 30.2678 0 0 -0.00039c0.26475,0 0.57253,-0.18813 0.80726,-0.48702 0.21413,-0.27265 0.36432,-0.63559 0.36432,-1.03208l0.00039 0 0 -5.08597 -0.00039 0c0,-0.39659 -0.15015,-0.75962 -0.3643,-1.03229 -0.23464,-0.29877 -0.54232,-0.48681 -0.80728,-0.48681l0 -0.00039z"/>
  <path class="fil2" d="M12.3335 5.34632l-0.34148 0 0 -0.61805 -0.55596 0 0 0.61805 -0.34148 0 0 -1.47599 0.34148 0 0 0.57572 0.55596 0 0 -0.57572 0.34148 0 0 1.47599zm1.7695 -0.73941c0,0.11665 -0.01694,0.22295 -0.0508,0.31891 -0.03387,0.09595 -0.08184,0.17779 -0.14393,0.24553 -0.06209,0.06773 -0.13688,0.12041 -0.22436,0.15804 -0.08749,0.03763 -0.18391,0.05644 -0.28927,0.05644 -0.10536,0 -0.20132,-0.01881 -0.28786,-0.05644 -0.08655,-0.03763 -0.16087,-0.09031 -0.22296,-0.15804 -0.06208,-0.06774 -0.11053,-0.14958 -0.14534,-0.24553 -0.0348,-0.09596 -0.05221,-0.20226 -0.05221,-0.31891 0,-0.11665 0.01741,-0.22248 0.05221,-0.31749 0.03481,-0.09501 0.08373,-0.17638 0.14676,-0.24412 0.06302,-0.06773 0.13781,-0.11994 0.22436,-0.15663 0.08654,-0.03668 0.18156,-0.05503 0.28504,-0.05503 0.10348,0 0.19896,0.01835 0.28645,0.05503 0.08748,0.03669 0.16227,0.0889 0.22436,0.15663 0.06208,0.06774 0.11053,0.14911 0.14534,0.24412 0.0348,0.09501 0.05221,0.20084 0.05221,0.31749zm-0.34995 0c0,-0.14675 -0.03151,-0.26293 -0.09454,-0.34853 -0.06303,-0.08561 -0.15099,-0.12841 -0.26387,-0.12841 -0.11289,0 -0.20085,0.0428 -0.26388,0.12841 -0.06302,0.0856 -0.09454,0.20178 -0.09454,0.34853 0,0.14864 0.03152,0.26623 0.09454,0.35277 0.06303,0.08655 0.15099,0.12982 0.26388,0.12982 0.11288,0 0.20084,-0.04327 0.26387,-0.12982 0.06303,-0.08654 0.09454,-0.20413 0.09454,-0.35277zm1.28973 0.76763c-0.05457,0 -0.11007,-0.00188 -0.16651,-0.00564 -0.05645,-0.00377 -0.11054,-0.00847 -0.16228,-0.01411 -0.05174,-0.00565 -0.10018,-0.01176 -0.14534,-0.01835 -0.04515,-0.00658 -0.08278,-0.01364 -0.11288,-0.02116l0 -1.42519c0.0301,-0.00753 0.06773,-0.01459 0.11288,-0.02117 0.04516,-0.00659 0.0936,-0.01223 0.14534,-0.01693 0.05174,-0.00471 0.10583,-0.00847 0.16228,-0.01129 0.05644,-0.00282 0.11194,-0.00424 0.16651,-0.00424 0.19943,0 0.35465,0.03622 0.46565,0.10866 0.11101,0.07243 0.16651,0.17356 0.16651,0.30338 0,0.06773 -0.01693,0.12794 -0.0508,0.18062 -0.03387,0.05268 -0.07808,0.09219 -0.13264,0.11853 0.06773,0.02634 0.12606,0.06773 0.17497,0.12417 0.04892,0.05645 0.07338,0.13641 0.07338,0.23989 0,0.14863 -0.05833,0.26293 -0.17497,0.34289 -0.11665,0.07996 -0.29069,0.11994 -0.5221,0.11994zm0.00846 -0.91156c0.08467,0 0.15475,-0.01223 0.21025,-0.03668 0.05551,-0.02446 0.08326,-0.07338 0.08326,-0.14676 0,-0.03574 -0.00894,-0.06491 -0.02681,-0.08748 -0.01788,-0.02258 -0.04187,-0.04045 -0.07197,-0.05362 -0.0301,-0.01317 -0.06491,-0.02211 -0.10442,-0.02681 -0.03951,-0.00471 -0.0809,-0.00706 -0.12417,-0.00706 -0.03387,0 -0.07291,0.00094 -0.11712,0.00282 -0.04422,0.00188 -0.07949,0.00471 -0.10583,0.00847l0 0.34712 0.25681 0zm-0.25681 0.62935c0.02257,0.00376 0.05973,0.00705 0.11147,0.00987 0.05174,0.00283 0.10019,0.00424 0.14534,0.00424 0.1016,0 0.18579,-0.01411 0.25259,-0.04234 0.06679,-0.02822 0.10018,-0.08184 0.10018,-0.16086 0,-0.07714 -0.03057,-0.13029 -0.09172,-0.15945 -0.06114,-0.02916 -0.14064,-0.04374 -0.23847,-0.04374l-0.27939 0 0 0.39228zm1.61145 0.25399l-0.34148 0 0 -1.47599 0.34148 0 0 1.47599zm0.03669 -1.90778c0,0.06397 -0.0207,0.11477 -0.06209,0.1524 -0.04139,0.03763 -0.09031,0.05644 -0.14675,0.05644 -0.05833,0 -0.10818,-0.01881 -0.14958,-0.05644 -0.04139,-0.03763 -0.06208,-0.08843 -0.06208,-0.1524 0,-0.06585 0.02069,-0.11759 0.06208,-0.15522 0.0414,-0.03763 0.09125,-0.05644 0.14958,-0.05644 0.05644,0 0.10536,0.01881 0.14675,0.05644 0.04139,0.03763 0.06209,0.08937 0.06209,0.15522zm2.29441 1.90778l-0.34148 0 0 -0.61805 -0.55596 0 0 0.61805 -0.34148 0 0 -1.47599 0.34148 0 0 0.57572 0.55596 0 0 -0.57572 0.34148 0 0 1.47599zm0.95389 -0.23988c0.10536,0 0.18533,-0.00565 0.23989,-0.01694l0 -0.37817c-0.01882,-0.00564 -0.0461,-0.01128 -0.08185,-0.01693 -0.03574,-0.00564 -0.07525,-0.00847 -0.11853,-0.00847 -0.03762,0 -0.07572,0.00283 -0.11429,0.00847 -0.03857,0.00565 -0.07338,0.01599 -0.10442,0.03104 -0.03105,0.01506 -0.05598,0.03622 -0.07479,0.0635 -0.01882,0.02728 -0.02822,0.06162 -0.02822,0.10301 0,0.0809 0.0254,0.13688 0.0762,0.16792 0.05079,0.03104 0.11947,0.04657 0.20601,0.04657zm-0.02822 -1.2728c0.11289,0 0.2079,0.01411 0.28504,0.04233 0.07714,0.02823 0.13876,0.06774 0.18485,0.11854 0.0461,0.05079 0.07902,0.11241 0.09878,0.18485 0.01975,0.07243 0.02963,0.15192 0.02963,0.23847l0 0.89462c-0.05268,0.01129 -0.13217,0.02493 -0.23847,0.04093 -0.1063,0.01599 -0.22625,0.02398 -0.35983,0.02398 -0.08843,0 -0.16933,-0.00846 -0.2427,-0.0254 -0.07338,-0.01693 -0.13594,-0.04421 -0.18768,-0.08184 -0.05174,-0.03763 -0.09219,-0.08654 -0.12135,-0.14675 -0.02916,-0.06021 -0.04374,-0.13452 -0.04374,-0.22295 0,-0.08467 0.01646,-0.15616 0.04938,-0.21449 0.03293,-0.05832 0.07761,-0.10583 0.13406,-0.14251 0.05644,-0.03669 0.12182,-0.06303 0.19614,-0.07902 0.07431,-0.016 0.15192,-0.02399 0.23283,-0.02399 0.03762,0 0.07713,0.00235 0.11853,0.00705 0.04139,0.00471 0.0856,0.0127 0.13264,0.02399l0 -0.05644c0,-0.03951 -0.00471,-0.07714 -0.01411,-0.11289 -0.00941,-0.03575 -0.02587,-0.06726 -0.04939,-0.09454 -0.02352,-0.02728 -0.05456,-0.04845 -0.09313,-0.0635 -0.03857,-0.01505 -0.08702,-0.02258 -0.14534,-0.02258 -0.07902,0 -0.15146,0.00565 -0.21731,0.01694 -0.06585,0.01128 -0.11947,0.02445 -0.16086,0.03951l-0.04234 -0.27658c0.04328,-0.01505 0.10631,-0.0301 0.18909,-0.04515 0.08278,-0.01505 0.17121,-0.02258 0.26528,-0.02258zm2.65283 0.78174c0,-0.1524 -0.03434,-0.27093 -0.10301,-0.35559 -0.06868,-0.08467 -0.17921,-0.127 -0.33161,-0.127 -0.03198,0 -0.06538,0.00141 -0.10018,0.00423 -0.03481,0.00283 -0.06915,0.00894 -0.10301,0.01835l0 0.84382c0.0301,0.0207 0.07008,0.03998 0.11994,0.05786 0.04986,0.01787 0.10301,0.02681 0.15945,0.02681 0.12418,0 0.21496,-0.04233 0.27234,-0.127 0.05738,-0.08466 0.08608,-0.19849 0.08608,-0.34148zm0.34994 -0.00564c0,0.11288 -0.01458,0.21636 -0.04374,0.31043 -0.02916,0.09408 -0.07102,0.17498 -0.12559,0.24271 -0.05456,0.06773 -0.12276,0.12041 -0.2046,0.15804 -0.08185,0.03763 -0.17451,0.05644 -0.27799,0.05644 -0.06961,0 -0.13358,-0.00846 -0.1919,-0.0254 -0.05833,-0.01693 -0.1063,-0.03574 -0.14393,-0.05644l0 0.5729 -0.34148 0 0 -1.95011c0.06961,-0.01882 0.15522,-0.03669 0.25681,-0.05362 0.1016,-0.01694 0.20884,-0.0254 0.32173,-0.0254 0.11665,0 0.22107,0.01787 0.31326,0.05362 0.09219,0.03574 0.17074,0.08701 0.23565,0.15381 0.06491,0.06679 0.11477,0.14769 0.14957,0.2427 0.03481,0.09501 0.05221,0.20179 0.05221,0.32032zm1.64533 -0.73941l0 1.47599 -0.33866 0c0,-0.10724 0.00047,-0.21354 0.00141,-0.3189 0.00094,-0.10536 0.00188,-0.2032 0.00282,-0.29351 0.00094,-0.09031 0.00188,-0.16886 0.00282,-0.23565 0.00094,-0.06679 0.00141,-0.11618 0.00141,-0.14816 -0.05644,0.07337 -0.11476,0.15428 -0.17497,0.2427 -0.06021,0.08843 -0.11994,0.17686 -0.17921,0.26529 -0.05926,0.08842 -0.11524,0.17497 -0.16792,0.25964 -0.05268,0.08466 -0.09877,0.16086 -0.13828,0.22859l-0.30197 0 0 -1.47599 0.33583 0c0,0.10912 -0.00047,0.21307 -0.00141,0.31185 -0.00094,0.09877 -0.00141,0.18861 -0.00141,0.26952 0,0.0809 -0.00047,0.15145 -0.00141,0.21166 -0.00094,0.0602 -0.00141,0.1063 -0.00141,0.13828 0.05268,-0.0809 0.10724,-0.16415 0.16368,-0.24976 0.05645,-0.0856 0.11336,-0.16933 0.17074,-0.25117 0.05739,-0.08184 0.1143,-0.15945 0.17075,-0.23283 0.05644,-0.07337 0.111,-0.13923 0.16368,-0.19755l0.29351 0zm1.67353 1.47599l-0.34148 0 0 -0.61805 -0.55596 0 0 0.61805 -0.34148 0 0 -1.47599 0.34148 0 0 0.57572 0.55596 0 0 -0.57572 0.34148 0 0 1.47599zm0.7761 -0.88334c0.04327,-0.04327 0.09031,-0.09172 0.14111,-0.14534 0.05079,-0.05362 0.10112,-0.10771 0.15098,-0.16227 0.04986,-0.05456 0.09737,-0.10677 0.14252,-0.15663 0.04515,-0.04986 0.08278,-0.09266 0.11289,-0.12841l0.40074 0c-0.04139,0.04892 -0.08889,0.10254 -0.14252,0.16086 -0.05362,0.05833 -0.10912,0.11806 -0.1665,0.17921 -0.05739,0.06115 -0.11383,0.12041 -0.16933,0.1778 -0.05551,0.05738 -0.10583,0.10865 -0.15099,0.1538 0.05833,0.04892 0.119,0.10584 0.18203,0.17075 0.06303,0.0649 0.12512,0.13358 0.18626,0.20601 0.06115,0.07244 0.11806,0.14581 0.17074,0.22013 0.05268,0.07432 0.0969,0.14346 0.13265,0.20743l-0.39511 0c-0.03574,-0.05644 -0.07761,-0.11571 -0.12558,-0.1778 -0.04798,-0.06208 -0.09831,-0.12276 -0.15099,-0.18203 -0.05268,-0.05926 -0.1063,-0.11523 -0.16086,-0.16791 -0.05456,-0.05268 -0.10724,-0.09784 -0.15804,-0.13547l0 0.66321 -0.34148 0 0 -1.47599 0.34148 0 0 0.59265zm2.44399 -0.59265c-0.1524,0.56067 -0.32925,1.06866 -0.53057,1.52397 -0.03763,0.08466 -0.0762,0.1571 -0.11571,0.2173 -0.03951,0.06021 -0.08372,0.11007 -0.13264,0.14958 -0.04891,0.03951 -0.10348,0.0682 -0.16368,0.08607 -0.06021,0.01788 -0.12982,0.02681 -0.20884,0.02681 -0.05268,0 -0.10489,-0.00564 -0.15663,-0.01693 -0.05174,-0.01129 -0.09078,-0.02352 -0.11712,-0.03669l0.06209 -0.27375c0.06773,0.02634 0.13452,0.03951 0.20037,0.03951 0.08843,0 0.15757,-0.02116 0.20743,-0.0635 0.04986,-0.04233 0.0936,-0.10771 0.13123,-0.19614 -0.10724,-0.20695 -0.21025,-0.43273 -0.30903,-0.67731 -0.09877,-0.24459 -0.18673,-0.50423 -0.26387,-0.77892l0.36406 0c0.01881,0.07902 0.04186,0.16463 0.06914,0.25682 0.02728,0.09219 0.05691,0.18579 0.0889,0.2808 0.03198,0.09501 0.06585,0.18956 0.1016,0.28363 0.03574,0.09407 0.07149,0.18156 0.10724,0.26246 0.0602,-0.16745 0.11665,-0.34571 0.16933,-0.5348 0.05268,-0.18908 0.10066,-0.37205 0.14393,-0.54891l0.35277 0z"/>
  <ellipse class="fil3" cx="6.02947" cy="2.55267" rx="0.836188" ry="0.896848"/>
  <path class="fil2" d="M6.02947 1.50582c0.27405,0 0.52181,0.11878 0.70081,0.31076 0.17631,0.18909 0.28538,0.44944 0.28538,0.73609 0,0.01431 -0.0003,0.02853 -0.00084,0.04269l-0.30029 0c0.00073,-0.01414 0.00113,-0.02835 0.00113,-0.04269 0,-0.20855 -0.07816,-0.39668 -0.20452,-0.53219 -0.12364,-0.1326 -0.29399,-0.21466 -0.48167,-0.21466 -0.18769,0 -0.35804,0.08205 -0.48168,0.21466 -0.12634,0.13551 -0.20451,0.32363 -0.20451,0.53219 0,0.01434 0.0004,0.02856 0.00113,0.04269l-0.30029 0c-0.00054,-0.01417 -0.00084,-0.02839 -0.00084,-0.04269 0,-0.28667 0.10907,-0.547 0.28537,-0.73609 0.179,-0.19199 0.42678,-0.31076 0.70082,-0.31076z"/>
  <rect class="fil0" x="4.27347" y="2.69536" width="3.51199" height="3.51199"/>
  <path class="fil2" d="M4.27347 2.59536l3.51199 0 0.1 0 0 0.1 0 3.51199 0 0.1 -0.1 0 -3.51199 0 -0.1 0 0 -0.1 0 -3.51199 0 -0.1 0.1 0zm3.41199 0.2l-3.31199 0 0 3.31199 3.31199 0 0 -3.31199z"/>
  <path class="fil2" d="M4.91755 4.66027c0.02502,-0.02193 0.05892,-0.04754 0.10168,-0.07684 0.04278,-0.0293 0.09226,-0.05721 0.14846,-0.08376 0.05289,-0.02498 0.10052,-0.03864 0.1429,-0.04096 0.04236,-0.00233 0.08023,0.00456 0.1136,0.02063 0.03338,0.01608 0.06308,0.04046 0.08914,0.07314 0.02605,0.03268 0.04941,0.07092 0.0701,0.11472l0.17215 0.36447 -0.15 0.07085 -0.16103 -0.34091c-0.01639,-0.03472 -0.03262,-0.06319 -0.04868,-0.08542 -0.01606,-0.02223 -0.03287,-0.03856 -0.05042,-0.04897 -0.01755,-0.01041 -0.03687,-0.01493 -0.05796,-0.01356 -0.02108,0.00137 -0.04444,0.0081 -0.07006,0.0202 -0.01901,0.00898 -0.03826,0.01959 -0.05775,0.03182 -0.01949,0.01225 -0.0338,0.02153 -0.04294,0.02787l0.2471 0.52315 -0.15 0.07085 -0.29629 -0.62728zm0.8339 -0.01936c-0.02693,-0.05703 -0.04208,-0.11103 -0.04544,-0.16201 -0.00336,-0.05098 0.00229,-0.09736 0.01692,-0.13914 0.01463,-0.04178 0.03671,-0.0785 0.06625,-0.11014 0.02953,-0.03164 0.0633,-0.05644 0.10132,-0.0744 0.08926,-0.04215 0.17197,-0.04736 0.24812,-0.0156 0.07615,0.03176 0.14019,0.10259 0.19211,0.21252 0.00391,0.00826 0.00809,0.01766 0.01255,0.02818 0.00447,0.01053 0.00824,0.02012 0.01132,0.02877l-0.42769 0.20201c0.02872,0.05011 0.06614,0.08172 0.11226,0.09482 0.04611,0.01309 0.10016,0.005 0.16214,-0.02427 0.03637,-0.01718 0.06806,-0.0362 0.09511,-0.05706 0.02705,-0.02086 0.04749,-0.03911 0.06133,-0.05475l0.07781 0.11336c-0.00632,0.00804 -0.01563,0.01775 -0.02795,0.02913 -0.01232,0.01137 -0.02689,0.02331 -0.04373,0.03582 -0.01684,0.01249 -0.03542,0.02506 -0.05573,0.03769 -0.02033,0.01263 -0.04164,0.02421 -0.06396,0.03475 -0.05702,0.02693 -0.11061,0.04188 -0.16076,0.04486 -0.05015,0.00296 -0.09599,-0.0042 -0.13751,-0.02148 -0.04152,-0.01728 -0.07855,-0.04326 -0.1111,-0.07793 -0.03255,-0.03465 -0.06034,-0.07637 -0.08337,-0.12513zm0.40352 -0.27247c-0.00976,-0.02066 -0.02193,-0.03893 -0.0365,-0.05478 -0.01457,-0.01587 -0.03065,-0.02798 -0.04825,-0.03635 -0.0176,-0.00836 -0.03631,-0.01267 -0.05613,-0.01291 -0.01982,-0.00024 -0.04089,0.00491 -0.06321,0.01545 -0.02314,0.01093 -0.04134,0.02483 -0.0546,0.04171 -0.01326,0.01688 -0.02255,0.03517 -0.0279,0.05488 -0.00536,0.01971 -0.00704,0.04022 -0.00506,0.06152 0.00198,0.0213 0.00622,0.04205 0.01271,0.06223l0.27894 -0.13175zm0.68609 -0.34833c0.01534,0.08172 0.02836,0.16224 0.03905,0.24159 0.0107,0.07936 0.01975,0.15469 0.02714,0.226l-0.12273 0.05797c-0.03448,-0.03021 -0.07233,-0.0654 -0.11354,-0.10558 -0.04122,-0.04017 -0.084,-0.08365 -0.12833,-0.13044 -0.04433,-0.04678 -0.09003,-0.09646 -0.13711,-0.14903 -0.04707,-0.05257 -0.09431,-0.10657 -0.14172,-0.16201l0.15868 -0.07495c0.02383,0.0312 0.05017,0.06449 0.07903,0.09989 0.02885,0.0354 0.0585,0.07144 0.08895,0.10809 0.03046,0.03667 0.06084,0.0721 0.09115,0.10631 0.03031,0.0342 0.05906,0.0651 0.08624,0.09269 -0.00555,-0.04387 -0.01191,-0.08888 -0.01906,-0.13504 -0.00713,-0.04616 -0.01491,-0.09202 -0.02328,-0.1376 -0.00839,-0.04556 -0.0169,-0.08981 -0.02555,-0.13273 -0.00865,-0.04292 -0.01725,-0.08308 -0.02582,-0.12047l0.11529 -0.05446c0.02344,0.03037 0.04878,0.06263 0.07603,0.09676 0.02724,0.03414 0.05559,0.06902 0.08505,0.10463 0.02946,0.03562 0.05974,0.07085 0.09085,0.10568 0.03112,0.03484 0.06185,0.06834 0.0922,0.1005 -0.00487,-0.03813 -0.01089,-0.07977 -0.01805,-0.12491 -0.00717,-0.04513 -0.01504,-0.0912 -0.02359,-0.13821 -0.00855,-0.047 -0.01735,-0.09289 -0.02636,-0.13766 -0.00901,-0.04477 -0.01799,-0.08626 -0.02696,-0.12448l0.15497 -0.0732c0.0127,0.07184 0.0244,0.14262 0.03511,0.21237 0.01071,0.06975 0.02004,0.13661 0.02801,0.20056 0.00797,0.06396 0.01438,0.12462 0.01924,0.18196 0.00485,0.05736 0.00757,0.10914 0.00817,0.15535l-0.12149 0.05739c-0.05037,-0.05102 -0.10322,-0.10566 -0.15855,-0.16393 -0.05532,-0.05828 -0.10966,-0.11928 -0.16302,-0.18304z"/>
 </g>
</svg>
