<?xml version="1.0" encoding="UTF-8"?>
<!DOCTYPE svg PUBLIC "-//W3C//DTD SVG 1.1//EN" "http://www.w3.org/Graphics/SVG/1.1/DTD/svg11.dtd">
<!-- Creator: CorelDRAW -->
<svg xmlns="http://www.w3.org/2000/svg" xml:space="preserve" width="100%" height="100%" style="shape-rendering:geometricPrecision; text-rendering:geometricPrecision; image-rendering:optimizeQuality; fill-rule:evenodd; clip-rule:evenodd"
viewBox="0 0 15.8 16"
 xmlns:xlink="http://www.w3.org/1999/xlink">
 <defs>
  <style type="text/css">
   <![CDATA[
    .str1 {stroke:#1F1A17;stroke-width:0.1}
    .str0 {stroke:#AAABAE;stroke-width:0.2}
    .fil2 {fill:#1F1A17}
    .fil0 {fill:white}
    .fil1 {fill:#1F1A17;fill-rule:nonzero}
   ]]>
  </style>
 </defs>
 <g id="Слой_x0020_1">
  <metadata id="CorelCorpID_0Corel-Layer"/>
  <path class="fil0 str0" d="M1.40211 0.15497l12.9958 0c0.55967,0 1.27158,0.72909 1.27158,1.6191l0 12.4519c0,0.89001 -0.71234,1.6191 -1.27158,1.6191l-12.9958 0c-0.55924,0 -1.27158,-0.72859 -1.27158,-1.6191l0 -12.4519c0,-0.89051 0.71191,-1.6191 1.27158,-1.6191z"/>
  <polygon class="fil1" points="4.37293,11.6044 4.37293,13.0804 4.03144,13.0804 4.03144,11.8894 3.48675,11.8894 3.48675,13.0804 3.14526,13.0804 3.14526,11.6044 "/>
  <path id="1" class="fil1" d="M5.78686 12.3494c0,-0.1524 -0.03434,-0.27094 -0.10301,-0.3556 -0.06867,-0.08467 -0.17921,-0.127 -0.33161,-0.127 -0.03199,0 -0.06538,0.00141 -0.10019,0.00423 -0.03481,0.00282 -0.06914,0.00894 -0.10301,0.01834l0 0.84385c0.0301,0.02069 0.07008,0.03998 0.11994,0.05785 0.04986,0.01788 0.10301,0.02681 0.15946,0.02681 0.12418,0 0.21496,-0.04233 0.27234,-0.127 0.05739,-0.08466 0.08608,-0.19849 0.08608,-0.34148zm0.34996 -0.00565c0,0.11289 -0.01458,0.21637 -0.04375,0.31044 -0.02916,0.09408 -0.07102,0.17498 -0.12559,0.24272 -0.05456,0.06773 -0.12276,0.12041 -0.20461,0.15804 -0.08184,0.03763 -0.1745,0.05644 -0.27799,0.05644 -0.06961,0 -0.13358,-0.00846 -0.19191,-0.0254 -0.05832,-0.01693 -0.1063,-0.03574 -0.14393,-0.05644l0 0.57291 -0.34149 0 0 -1.95015c0.06962,-0.01882 0.15522,-0.03669 0.25682,-0.05363 0.1016,-0.01693 0.20885,-0.0254 0.32174,-0.0254 0.11665,0 0.22107,0.01788 0.31326,0.05363 0.09219,0.03574 0.17075,0.08702 0.23566,0.15381 0.06491,0.06679 0.11477,0.14769 0.14958,0.24271 0.0348,0.09501 0.05221,0.20179 0.05221,0.32032z"/>
  <path id="12" class="fil1" d="M7.8245 12.341c0,0.11665 -0.01693,0.22295 -0.0508,0.31891 -0.03387,0.09595 -0.08184,0.1778 -0.14393,0.24553 -0.06209,0.06774 -0.13688,0.12042 -0.22437,0.15805 -0.08749,0.03763 -0.18391,0.05644 -0.28928,0.05644 -0.10536,0 -0.20131,-0.01881 -0.28786,-0.05644 -0.08655,-0.03763 -0.16087,-0.09031 -0.22296,-0.15805 -0.06209,-0.06773 -0.11053,-0.14958 -0.14534,-0.24553 -0.03481,-0.09596 -0.05221,-0.20226 -0.05221,-0.31891 0,-0.11665 0.0174,-0.22249 0.05221,-0.3175 0.03481,-0.09502 0.08372,-0.17639 0.14675,-0.24412 0.06303,-0.06774 0.13782,-0.11995 0.22437,-0.15664 0.08655,-0.03669 0.18156,-0.05503 0.28504,-0.05503 0.10349,0 0.19897,0.01834 0.28646,0.05503 0.08749,0.03669 0.16228,0.0889 0.22437,0.15664 0.06208,0.06773 0.11053,0.1491 0.14534,0.24412 0.03481,0.09501 0.05221,0.20085 0.05221,0.3175zm-0.34995 0c0,-0.14676 -0.03152,-0.26294 -0.09455,-0.34855 -0.06303,-0.0856 -0.15099,-0.12841 -0.26388,-0.12841 -0.11289,0 -0.20084,0.04281 -0.26387,0.12841 -0.06303,0.08561 -0.09455,0.20179 -0.09455,0.34855 0,0.14864 0.03152,0.26623 0.09455,0.35278 0.06303,0.08654 0.15098,0.12982 0.26387,0.12982 0.11289,0 0.20085,-0.04328 0.26388,-0.12982 0.06303,-0.08655 0.09455,-0.20414 0.09455,-0.35278z"/>
  <path id="123" class="fil1" d="M7.99666 12.801l0.16933 0c0.05833,-0.07714 0.10395,-0.16322 0.13688,-0.25823 0.03293,-0.09502 0.05691,-0.19474 0.07197,-0.29916 0.01505,-0.10442 0.02446,-0.21119 0.02822,-0.32032 0.00376,-0.10913 0.00658,-0.21543 0.00847,-0.31891l1.05833 0 0 1.19662 0.22578 0 0 0.69709 -0.3048 0 0 -0.41769 -1.0922 0 0 0.41769 -0.30198 0 0 -0.69709zm1.13171 0l0 -0.9144 -0.40076 0c-0.00376,0.07714 -0.00846,0.15569 -0.01411,0.23566 -0.00564,0.07996 -0.01599,0.15898 -0.03104,0.23706 -0.01505,0.07808 -0.03528,0.15428 -0.06068,0.2286 -0.0254,0.07432 -0.0588,0.14535 -0.10019,0.21308l0.60678 0z"/>
  <path id="1234" class="fil1" d="M10.483 12.8405c0.10536,0 0.18533,-0.00564 0.23989,-0.01693l0 -0.37818c-0.01882,-0.00564 -0.0461,-0.01129 -0.08185,-0.01693 -0.03574,-0.00565 -0.07526,-0.00847 -0.11853,-0.00847 -0.03763,0 -0.07573,0.00282 -0.1143,0.00847 -0.03857,0.00564 -0.07338,0.01599 -0.10442,0.03104 -0.03105,0.01505 -0.05598,0.03622 -0.07479,0.0635 -0.01882,0.02728 -0.02822,0.06162 -0.02822,0.10301 0,0.08091 0.0254,0.13688 0.0762,0.16792 0.0508,0.03105 0.11947,0.04657 0.20602,0.04657zm-0.02822 -1.27282c0.11289,0 0.2079,0.01411 0.28504,0.04233 0.07714,0.02823 0.13876,0.06774 0.18486,0.11854 0.04609,0.0508 0.07902,0.11242 0.09877,0.18485 0.01976,0.07244 0.02964,0.15193 0.02964,0.23848l0 0.89464c-0.05268,0.01129 -0.13218,0.02493 -0.23848,0.04093 -0.1063,0.01599 -0.22625,0.02398 -0.35983,0.02398 -0.08843,0 -0.16934,-0.00846 -0.24271,-0.0254 -0.07338,-0.01693 -0.13594,-0.04421 -0.18768,-0.08184 -0.05174,-0.03763 -0.09219,-0.08655 -0.12136,-0.14676 -0.02916,-0.0602 -0.04374,-0.13452 -0.04374,-0.22295 0,-0.08467 0.01646,-0.15616 0.04939,-0.21449 0.03292,-0.05833 0.07761,-0.10583 0.13405,-0.14252 0.05645,-0.03669 0.12183,-0.06303 0.19615,-0.07902 0.07432,-0.016 0.15193,-0.02399 0.23283,-0.02399 0.03763,0 0.07714,0.00235 0.11853,0.00705 0.0414,0.00471 0.08561,0.0127 0.13265,0.02399l0 -0.05644c0,-0.03951 -0.00471,-0.07714 -0.01411,-0.11289 -0.00941,-0.03575 -0.02587,-0.06726 -0.04939,-0.09455 -0.02352,-0.02728 -0.05456,-0.04844 -0.09314,-0.0635 -0.03857,-0.01505 -0.08701,-0.02257 -0.14534,-0.02257 -0.07902,0 -0.15146,0.00564 -0.21731,0.01693 -0.06585,0.01129 -0.11947,0.02446 -0.16087,0.03951l-0.04233 -0.27658c0.04327,-0.01505 0.1063,-0.0301 0.18909,-0.04515 0.08278,-0.01505 0.17121,-0.02258 0.26529,-0.02258z"/>
  <path id="12345" class="fil1" d="M11.8151 12.1124c-0.00564,0.07902 -0.01129,0.16134 -0.01693,0.24694 -0.00565,0.08561 -0.01035,0.17075 -0.01411,0.25541 -0.00377,0.08467 -0.00753,0.16651 -0.01129,0.24554 -0.00376,0.07902 -0.00659,0.1524 -0.00847,0.22013l-0.3302 0c0.00377,-0.10913 0.00941,-0.22719 0.01694,-0.35419 0.00752,-0.127 0.01646,-0.25588 0.02681,-0.38664 0.01034,-0.13077 0.02116,-0.25918 0.03245,-0.38524 0.01129,-0.12605 0.02352,-0.24271 0.03669,-0.34995l0.29633 0c0.0715,0.11477 0.14394,0.24977 0.21731,0.40499 0.07338,0.15522 0.15523,0.33161 0.24554,0.52916 0.09407,-0.20131 0.17968,-0.38335 0.25682,-0.5461 0.07714,-0.16274 0.14581,-0.2921 0.20602,-0.38805l0.29916 0c0.01317,0.10724 0.02587,0.2239 0.0381,0.34995 0.01223,0.12606 0.02305,0.25447 0.03245,0.38524 0.00941,0.13076 0.01788,0.25964 0.0254,0.38664 0.00753,0.127 0.01317,0.24506 0.01694,0.35419l-0.33867 0c-0.00376,-0.15428 -0.00988,-0.31374 -0.01834,-0.47837 -0.00847,-0.16463 -0.01835,-0.32784 -0.02964,-0.48965 -0.02822,0.05644 -0.05879,0.11947 -0.09172,0.18909 -0.03293,0.06961 -0.06538,0.14017 -0.09737,0.21166 -0.03198,0.0715 -0.06303,0.14064 -0.09313,0.20744 -0.0301,0.06679 -0.05644,0.12559 -0.07902,0.17639l-0.254 0c-0.02258,-0.0508 -0.04939,-0.11007 -0.08044,-0.1778 -0.03104,-0.06774 -0.06255,-0.13735 -0.09454,-0.20885 -0.03198,-0.07149 -0.06444,-0.14158 -0.09737,-0.21025 -0.03292,-0.06868 -0.0635,-0.13124 -0.09172,-0.18768z"/>
  <g id="_127121456">
   <path id="_125223056" class="fil1" d="M6.88735 2.29285c-0.25239,0.00066 -0.53142,-0.0037 -0.8072,-0.00801l0 -1e-005c-0.23882,-0.00372 -0.4751,-0.00742 -0.72138,-0.00742 -0.13002,0 -0.0013,-0.00031 -0.12326,-0.00061 -0.26856,-0.0007 -0.63995,-0.00166 -0.99743,0.02048 -0.03815,0.00235 -0.074,0.01228 -0.10692,0.02591 -0.03468,0.01436 -0.06727,0.03353 -0.09648,0.05284 -0.00307,0.00203 -0.00662,0.00471 -0.01054,0.00796 -0.04393,0.03637 -0.07517,0.10508 -0.08448,0.18452 -0.00978,0.08344 0.00563,0.17542 0.05652,0.25242 0.00632,0.00956 0.01361,0.01937 0.02185,0.02933 0.02356,0.02845 0.04583,0.05439 0.06891,0.0703 0.01979,0.01364 0.04477,0.0229 0.08049,0.02485 0.23341,0.01281 0.53955,0.00989 0.87484,0.0067 0.16091,-0.00153 0.32851,-0.00313 0.49867,-0.00312l0 0.00225c0.22037,-0.10285 0.44523,-0.20891 0.66812,-0.31618l0.08672 0.17968c-0.25594,0.12318 -0.48535,0.23145 -0.69571,0.32955 -0.16617,0.07749 -0.39843,0.18441 -0.62294,0.28768 -0.20875,0.09602 -0.36073,0.17248 -0.46441,0.24347 -0.08804,0.06028 -0.13594,0.11264 -0.15114,0.16805 -0.0248,0.09036 -0.02033,0.1717 0.0045,0.23755 0.02525,0.06695 0.07187,0.11779 0.12937,0.14444 0.23134,0.10723 0.40092,0.01301 0.65468,-0.12798 0.06034,-0.03353 0.12489,-0.0694 0.19219,-0.10426 0.2126,-0.11013 0.42443,-0.2128 0.64104,-0.31776 0.30614,-0.14836 0.62193,-0.3014 0.9576,-0.48395 0.06244,-0.03394 0.10909,-0.01901 0.14143,0.04057l-0.0003 0.00017c0.02917,0.05405 -0.01501,0.17803 -0.06734,0.32487 -0.0405,0.11365 -0.08687,0.24375 -0.10772,0.32933 -0.0334,0.13706 -0.052,0.33041 -0.06188,0.52605 -0.0191,0.37828 -0.00883,0.74828 -0.00701,0.75419 0.00464,0.01505 0.01222,0.03289 0.0227,0.0521 0.02928,0.05365 0.0788,0.11434 0.14761,0.15268 0.06623,0.03691 0.1527,0.05276 0.25988,0.01967 0.03401,-0.0105 0.07002,-0.02573 0.10801,-0.04646 0.16558,-0.09037 0.15662,-0.37523 0.14638,-0.70034 -0.01934,-0.61455 -0.04254,-1.3517 0.96664,-1.55046 0.17123,-0.03372 0.37626,-0.00447 0.56301,0.06516 0.19085,0.07117 0.36585,0.186 0.46914,0.32026 0.18291,0.23777 0.28721,0.48133 0.30399,0.72405 0.0165,0.23858 -0.05126,0.47326 -0.21155,0.69759 -0.11856,0.16594 -0.23437,0.3041 -0.39674,0.39564l-0.00017 -0.0003c-0.16405,0.09245 -0.36776,0.13326 -0.65615,0.10055 -0.29427,-0.03339 -0.49734,0.01369 -0.61916,0.09947 -0.05746,0.04045 -0.09562,0.08942 -0.11547,0.1416 -0.01935,0.05085 -0.02177,0.10553 -0.00813,0.15875 0.02272,0.08864 0.08933,0.17498 0.19635,0.23813 0.10734,0.06332 0.48346,0.05183 0.85215,0.04055 0.08066,-0.00246 0.161,-0.00493 0.24154,-0.00657 0.22774,-0.00465 0.40673,-0.00219 0.55592,-0.00013 0.22546,0.0031 0.38067,0.00524 0.53214,-0.02077 0.08795,-0.0151 0.18128,-0.11166 0.27892,-0.21268 0.02761,-0.02857 0.05557,-0.0575 0.08533,-0.08659 0.07928,-0.07751 0.18385,-0.18107 0.29996,-0.297 0.11335,-0.11317 0.23813,-0.23858 0.36159,-0.36353 0.03017,-0.03054 0.06312,-0.0638 0.09545,-0.09643 0.28576,-0.28845 0.54886,-0.55405 0.54868,-0.55456l0.05063 -0.01835 -0.06034 0 0.00361 -1.32659c0.00027,-0.10175 0.00098,-0.20101 0.00164,-0.29748 0.00176,-0.25484 0.0034,-0.49034 -0.00323,-0.68816 -0.00161,-0.04826 -0.01692,-0.11575 -0.04547,-0.17265 -0.01784,-0.03555 -0.0393,-0.06445 -0.0624,-0.07432 -0.15289,-0.06534 -0.32708,-0.124 -0.48867,-0.17229 -0.28392,-0.08485 -0.51077,-0.13821 -0.51842,-0.1372 -0.38742,0.0514 -0.99181,0.11479 -1.62135,0.16763 -0.53636,0.04502 -1.09712,0.08291 -1.56609,0.09993 -0.27598,0.01001 -0.64647,0.00983 -1.04734,0.00174 -0.42195,-0.00851 -0.87486,-0.02561 -1.28479,-0.0486 -0.01267,-0.00071 -0.02504,-0.00044 -0.03693,0.00076 -0.05254,0.00533 -0.1012,0.0293 -0.13779,0.06918 -0.03833,0.0418 -0.06393,0.10191 -0.06818,0.17784 -0.00105,0.01885 -0.00081,0.03853 0.00079,0.05893 0.09101,-0.00028 0.17646,-8e-005 0.2536,0.00012 -0.00814,-5e-005 -0.00702,-0.00017 0.12334,-0.00017 0.19881,0 0.46008,0.00409 0.72411,0.00821l0.00039 0c0.27556,0.0043 0.55436,0.00866 0.80408,0.00801l0 0.19922zm-1.77597 0.85782l-0.06755 0.00066c-0.34086,0.00324 -0.65208,0.00622 -0.88734,-0.0067 -0.077,-0.00422 -0.13442,-0.02663 -0.18283,-0.06001 -0.04513,-0.03111 -0.07695,-0.06767 -0.10953,-0.10702 -0.01208,-0.0146 -0.02354,-0.03015 -0.03435,-0.04651 -0.07902,-0.11957 -0.10329,-0.25963 -0.08856,-0.38524 0.0152,-0.12962 0.07269,-0.24713 0.15558,-0.31576 0.00845,-0.00699 0.01771,-0.01384 0.02772,-0.02046 0.03769,-0.02492 0.08113,-0.05023 0.13086,-0.07082 0.05148,-0.02131 0.10853,-0.03689 0.17098,-0.04075 0.18565,-0.0115 0.37667,-0.01675 0.55568,-0.01906 -0.00145,-0.02465 -0.0015,-0.04849 -0.00022,-0.07141 0.007,-0.1252 0.05231,-0.22768 0.12052,-0.30206 0.06997,-0.07627 0.1636,-0.12216 0.26513,-0.13246 0.02237,-0.00227 0.04492,-0.0028 0.06741,-0.00154 0.41251,0.02314 0.8629,0.04024 1.27775,0.0486 0.39648,0.008 0.76309,0.00818 1.0364,-0.00174 0.45728,-0.01659 1.01615,-0.05456 1.55673,-0.09993 0.63372,-0.05319 1.23405,-0.11593 1.61197,-0.16607 0.01563,-0.00206 0.29358,0.05152 0.60124,0.14346 0.16694,0.04989 0.34813,0.11102 0.50975,0.18009 0.0715,0.03056 0.12517,0.09466 0.1624,0.16886 0.04173,0.08317 0.06415,0.18321 0.06657,0.25545 0.00668,0.19903 0.00502,0.43733 0.00323,0.6952 -0.00067,0.09671 -0.00138,0.19625 -0.00164,0.2967l-0.0035 1.28442c0.00263,0.01135 0.00255,0.02416 -0.0001,0.03839l-1e-005 0.00378 -0.00078 0c-0.03031,0.14242 -0.30287,0.41764 -0.59601,0.71353 -0.03072,0.03101 -0.06138,0.06195 -0.09467,0.09565 -0.12358,0.12507 -0.24892,0.25104 -0.36315,0.36509 -0.11719,0.11701 -0.22231,0.22112 -0.30152,0.29856 -0.02657,0.02597 -0.05376,0.05411 -0.08063,0.08191 -0.12115,0.12535 -0.23695,0.24515 -0.38908,0.27128 -0.16675,0.02864 -0.33038,0.02638 -0.56808,0.02311 -0.14749,-0.00203 -0.32446,-0.00447 -0.54968,0.00013 -0.07583,0.00155 -0.15775,0.00406 -0.23998,0.00657 -0.39725,0.01215 -0.80251,0.02453 -0.95917,-0.06789 -0.15446,-0.09114 -0.25226,-0.22233 -0.28775,-0.36079 -0.02395,-0.09348 -0.01968,-0.1896 0.01437,-0.27907 0.03354,-0.08815 0.09555,-0.16915 0.18735,-0.23378 0.1582,-0.11139 0.40817,-0.17409 0.75588,-0.13463 0.24309,0.02757 0.40884,-0.00351 0.53678,-0.07564l0 -0.00039c0.12968,-0.07311 0.22854,-0.19238 0.3319,-0.33704 0.13214,-0.18492 0.18814,-0.37616 0.17483,-0.56869 -0.01399,-0.20229 -0.10409,-0.40942 -0.26259,-0.61545 -0.0806,-0.10477 -0.22292,-0.19652 -0.38086,-0.25542 -0.15427,-0.05752 -0.32042,-0.08232 -0.45519,-0.05578 -0.8429,0.16601 -0.82261,0.81066 -0.8057,1.3481 0.01229,0.39037 0.02306,0.73242 -0.25028,0.8816 -0.0504,0.0275 -0.09868,0.04787 -0.14473,0.06208 -0.16735,0.05166 -0.30643,0.02463 -0.41536,-0.03607 -0.10636,-0.05926 -0.18174,-0.15099 -0.22573,-0.23158 -0.01728,-0.03167 -0.03009,-0.06217 -0.03832,-0.08882 -0.00253,-0.0082 -0.02168,-0.42437 -0.00159,-0.82217 0.01043,-0.20648 0.03057,-0.41264 0.06734,-0.56355 0.02404,-0.0987 0.07163,-0.2322 0.1132,-0.34885 0.00189,-0.0053 0.00386,-0.0104 0.00585,-0.01535 -0.26668,0.13965 -0.51756,0.26119 -0.76224,0.37977 -0.21533,0.10434 -0.42592,0.20641 -0.63636,0.31542 -0.06929,0.03589 -0.12999,0.06962 -0.18671,0.10114 -0.3071,0.17063 -0.51233,0.28466 -0.83516,0.13502 -0.10456,-0.04846 -0.18836,-0.13838 -0.23249,-0.25538 -0.03877,-0.10281 -0.04666,-0.22651 -0.00996,-0.36021 0.02885,-0.10514 0.10188,-0.19226 0.23082,-0.28055 0.11329,-0.07757 0.27441,-0.15884 0.49409,-0.25989 0.06797,-0.03127 0.13867,-0.06383 0.21707,-0.10004z"/>
   <polygon id="_127118360" class="fil2 str1" points="7.28335,10.2717 7.58436,9.93112 7.58436,8.3075 8.04367,8.02239 8.05951,6.81855 7.74271,6.59678 6.58638,6.62846 6.3963,6.81855 6.41214,8.00655 7.01408,8.33919 7.01407,9.2975 6.82398,9.47966 7.00615,9.68557 6.83982,9.89146 "/>
   <polygon id="_127120856" class="fil0" points="6.67567,7.07304 6.79216,6.91773 7.64638,6.92744 7.79198,7.06334 7.74345,7.36425 7.60755,7.47103 7.22897,7.36425 6.91835,7.46132 6.72421,7.35455 "/>
   <path id="_127126904" class="fil1" d="M7.31064 5.03782c0.57462,0 1.04063,0.466 1.04063,1.04063 0,0.28729 -0.1165,0.54746 -0.30483,0.73579 -0.18833,0.18832 -0.44849,0.30483 -0.7358,0.30483 -0.28729,0 -0.54746,-0.1165 -0.73579,-0.30483 -0.18833,-0.18833 -0.30483,-0.4485 -0.30483,-0.73579 0,-0.28731 0.1165,-0.54747 0.30483,-0.7358 0.18833,-0.18833 0.4485,-0.30483 0.73579,-0.30483zm0.90063 1.04063c0,-0.49732 -0.40332,-0.90063 -0.90063,-0.90063 -0.24866,0 -0.47383,0.10083 -0.63681,0.26381 -0.16298,0.16298 -0.26381,0.38816 -0.26381,0.63682 0,0.24866 0.10083,0.47383 0.26381,0.63681 0.16298,0.16298 0.38815,0.26381 0.63681,0.26381 0.24866,0 0.47383,-0.10082 0.63682,-0.26381 0.16298,-0.16298 0.26381,-0.38815 0.26381,-0.63681z"/>
  </g>
 </g>
</svg>
