<?xml version="1.0" encoding="UTF-8"?>
<!DOCTYPE svg PUBLIC "-//W3C//DTD SVG 1.1//EN" "http://www.w3.org/Graphics/SVG/1.1/DTD/svg11.dtd">
<!-- Creator: CorelDRAW -->
<svg xmlns="http://www.w3.org/2000/svg" xml:space="preserve" width="100%" height="100%" style="shape-rendering:geometricPrecision; text-rendering:geometricPrecision; image-rendering:optimizeQuality; fill-rule:evenodd; clip-rule:evenodd"
viewBox="0 0 4.25 4.25"
 xmlns:xlink="http://www.w3.org/1999/xlink">
 <defs>
  <style type="text/css">
   <![CDATA[
    .str0 {stroke:#AAABAE;stroke-width:0.2}
    .fil0 {fill:none}
    .fil1 {fill:#C2C1C1}
    .fil2 {fill:#AAABAE}
   ]]>
  </style>
 </defs>
 <g id="Слой_x0020_1">
  <metadata id="CorelCorpID_0Corel-Layer"/>
  <g id="_125225240">
   <circle id="_125227064" class="fil0 str0" cx="2.12501" cy="2.12499" r="1.99953"/>
   <polygon id="_125228456" class="fil1" points="1.96459,2.00963 1.98978,2.01744 1.98063,1.99359 1.98063,2.00963 "/>
   <path id="_125221712" class="fil2" d="M2.08659 2.11385l0.08654 6e-005 -0.00998 0.36088 0.00196 0.22465 -0.06417 0 0.00311 -0.05624 -0.01746 -0.52935zm-0.10596 -0.12026l0.00915 0.02385 -0.02519 -0.00781c-0.08263,-0.00687 -0.21657,-0.06891 -0.21657,-0.1524l0 -0.0401c0,-0.03271 0.05561,-0.08022 0.09625,-0.08022l0.01604 0c0.0753,0 0.12032,0.17359 0.12032,0.25668zm0.28875 0.01604c0,-0.1223 0.05198,-0.4171 0.16042,-0.4171 0.06603,0 0.1123,0.07491 0.1123,0.14438 0,0.14731 -0.14594,0.24318 -0.27272,0.27272zm-0.01603 0.68981l0 -0.33688 0.00972 -0.26462c0.15978,-0.00367 0.35924,-0.16802 0.35924,-0.33696l0 -0.08021c0,-0.08384 -0.08812,-0.16844 -0.18448,-0.16844l-0.0401 0c-0.14923,0 -0.21657,0.34368 -0.21657,0.51334l-0.10428 0c-0.00336,-0.15055 -0.06799,-0.37699 -0.2246,-0.37699 -0.10507,0 -0.1925,0.08567 -0.1925,0.19251l0 0.02406c0,0.13342 0.20495,0.2377 0.33688,0.24064l0.01923 0.50521 -0.00318 0.08834 0.24064 0z"/>
   <path id="_125219816" class="fil2" d="M2.67846 0.96689l0.01604 0 0.02406 0.03209c0.11663,0.0781 0.29679,0.34778 0.29679,0.53741l0 0.17646c0,0.26934 -0.33257,0.69262 -0.40106,0.98659 -1.08515,0 0.19108,0 -0.97857,0 -0.06364,-0.27315 -0.40106,-0.74079 -0.40106,-0.97054l0 -0.16043c0,-0.3887 0.42437,-0.78606 0.81013,-0.78606l0.10428 0c0.17787,0 0.46226,0.09286 0.52939,0.18448zm-1.56411 0.63367l0 0.08021c0,0.25291 0.13023,0.43683 0.21657,0.6096 0.04478,0.08962 0.09136,0.18207 0.12947,0.2796 0.02977,0.07618 0.06778,0.24979 0.16731,0.24979l-0.02406 0 0.99461 0 0.00802 0c0.12187,0 0.14051,-0.14263 0.17891,-0.23818 0.04026,-0.10015 0.08414,-0.19178 0.13121,-0.28589 0.0884,-0.17676 0.21927,-0.35625 0.21927,-0.61492l0 -0.12834c0,-0.24435 -0.17333,-0.48798 -0.30298,-0.61142 -0.13049,-0.12426 -0.38805,-0.27892 -0.63549,-0.27892l-0.08021 0c-0.5286,0 -1.00263,0.42105 -1.00263,0.93847z"/>
   <path id="_125225792" class="fil2" d="M1.58759 2.98563l0 0.01265c0,0.05185 0.07332,0.10131 0.10428,0.10131l0.00802 0 0.8021 0 0.02407 0c0.04787,0 0.13636,-0.03407 0.13636,-0.10131l0 -0.01265c0,-0.07937 -0.0547,-0.11396 -0.10428,-0.11396l-0.86627 0c-0.04958,0 -0.10428,0.03459 -0.10428,0.11396z"/>
   <path id="_125223416" class="fil2" d="M1.65511 3.24365c0,0.06722 0.05917,0.11164 0.10908,0.11164l0.72163 0c0.04088,0 0.10908,-0.04836 0.10908,-0.08683 0,-0.08057 -0.05387,-0.12405 -0.10908,-0.12405l-0.70485 0c-0.05201,0 -0.12586,0.03545 -0.12586,0.09924z"/>
   <path id="_125227208" class="fil2" d="M2.12832 3.5879c0.15965,0 0.26708,-0.07503 0.37396,-0.17967l-0.75897 -0.00481c0.11283,0.14103 0.24549,0.18403 0.38501,0.18448z"/>
  </g>
 </g>
</svg>
