<?xml version="1.0" encoding="UTF-8"?>
<!DOCTYPE svg PUBLIC "-//W3C//DTD SVG 1.1//EN" "http://www.w3.org/Graphics/SVG/1.1/DTD/svg11.dtd">
<!-- Creator: CorelDRAW -->
<svg xmlns="http://www.w3.org/2000/svg" xml:space="preserve" width="100%" height="100%" style="shape-rendering:geometricPrecision; text-rendering:geometricPrecision; image-rendering:optimizeQuality; fill-rule:evenodd; clip-rule:evenodd"
viewBox="0 0 4.25 4.25"
 xmlns:xlink="http://www.w3.org/1999/xlink">
 <defs>
  <style type="text/css">
   <![CDATA[
    .str0 {stroke:#AAABAE;stroke-width:0.2}
    .fil1 {fill:none}
    .fil0 {fill:#AAABAE}
   ]]>
  </style>
 </defs>
 <g id="Слой_x0020_1">
  <metadata id="CorelCorpID_0Corel-Layer"/>
  <g id="_125217440">
   <path id="_125225000" class="fil0" d="M1.24896 2.40278l0.58533 0 -0.37211 -0.08996c-0.19665,-0.04754 -0.29291,-0.2265 -0.24679,-0.40565l0.01341 -0.05208c0.0451,-0.17523 0.21032,-0.28826 0.40161,-0.24862 -0.04643,-0.09017 -0.05103,-0.19688 0.01483,-0.30712 0.1495,-0.25024 0.66113,-0.3156 0.66113,-0.71644 0.13349,0.07545 0.14199,0.29978 0.16692,0.4853 0.00544,0.04046 0.02137,0.16568 0.13911,0.23591 0.12777,0.12383 0.13706,0.20995 0.11507,0.29649 -0.02426,0.09549 -0.12052,0.16693 -0.24636,0.21125l0.34096 0.08243c0.1967,0.04756 0.30188,0.22874 0.25578,0.40783l-0.0134 0.05208c-0.00457,0.01774 -0.0105,0.0348 -0.01759,0.05114 0.25924,0.02264 0.44189,0.19314 0.44189,0.39825l0 0.06408c0,0.22038 -0.21092,0.40081 -0.50098,0.40081l-1.73881 0c-0.29007,0 -0.48772,-0.18036 -0.48772,-0.40081l0 -0.06408c0,-0.22045 0.19756,-0.40081 0.48772,-0.40081z"/>
   <circle id="_125225648" class="fil1 str0" cx="2.125" cy="2.12499" r="1.99953"/>
  </g>
 </g>
</svg>
