<?xml version="1.0" encoding="UTF-8"?>
<!DOCTYPE svg PUBLIC "-//W3C//DTD SVG 1.1//EN" "http://www.w3.org/Graphics/SVG/1.1/DTD/svg11.dtd">
<!-- Creator: CorelDRAW -->
<svg xmlns="http://www.w3.org/2000/svg" xml:space="preserve" width="100%" height="100%" style="shape-rendering:geometricPrecision; text-rendering:geometricPrecision; image-rendering:optimizeQuality; fill-rule:evenodd; clip-rule:evenodd"
viewBox="0 0 6.6 6.6"
 xmlns:xlink="http://www.w3.org/1999/xlink">
 <defs>
  <style type="text/css">
   <![CDATA[
    .str0 {stroke:#AAABAE;stroke-width:0.2}
    .fil2 {fill:#1F1A17}
    .fil0 {fill:white}
    .fil1 {fill:#1F1A17;fill-rule:nonzero}
   ]]>
  </style>
 </defs>
 <g id="Слой_x0020_1">
  <metadata id="CorelCorpID_0Corel-Layer"/>
  <g id="_145465016">
   <path id="_145465976" class="fil0 str0" d="M-3.19789 -4.54503l12.9958 0c0.55967,0 1.27158,0.72909 1.27158,1.6191l0 12.4519c0,0.89001 -0.71234,1.6191 -1.27158,1.6191l-12.9958 0c-0.55924,0 -1.27158,-0.72859 -1.27158,-1.6191l0 -12.4519c0,-0.89051 0.71191,-1.6191 1.27158,-1.6191z"/>
   <path id="_145454624" class="fil1" d="M-1.51859 8.12745c-0.05456,0 -0.11006,-0.00188 -0.16651,-0.00564 -0.05644,-0.00377 -0.11054,-0.00847 -0.16228,-0.01411 -0.05174,-0.00565 -0.10018,-0.01176 -0.14534,-0.01835 -0.04516,-0.00658 -0.08279,-0.01364 -0.11289,-0.02116l0 -1.42523c0.0301,-0.00752 0.06773,-0.01458 0.11289,-0.02116 0.04516,-0.00659 0.0936,-0.01223 0.14534,-0.01694 0.05174,-0.0047 0.10584,-0.00846 0.16228,-0.01128 0.05645,-0.00283 0.11195,-0.00424 0.16651,-0.00424 0.19944,0 0.35466,0.03622 0.46567,0.10866 0.11101,0.07243 0.16651,0.17356 0.16651,0.30339 0,0.06773 -0.01693,0.12794 -0.0508,0.18062 -0.03387,0.05268 -0.07808,0.09219 -0.13264,0.11853 0.06773,0.02634 0.12605,0.06774 0.17497,0.12418 0.04892,0.05644 0.07338,0.13641 0.07338,0.23989 0,0.14864 -0.05832,0.26293 -0.17498,0.3429 -0.11665,0.07996 -0.29069,0.11994 -0.52211,0.11994zm0.00847 -0.91157c0.08467,0 0.15475,-0.01223 0.21025,-0.03669 0.05551,-0.02446 0.08326,-0.07338 0.08326,-0.14676 0,-0.03575 -0.00894,-0.06491 -0.02681,-0.08749 -0.01787,-0.02258 -0.04186,-0.04045 -0.07197,-0.05362 -0.0301,-0.01317 -0.06491,-0.02211 -0.10442,-0.02681 -0.03951,-0.0047 -0.0809,-0.00706 -0.12418,-0.00706 -0.03386,0 -0.0729,0.00094 -0.11712,0.00283 -0.04421,0.00188 -0.07949,0.0047 -0.10583,0.00846l0 0.34714 0.25682 0zm-0.25682 0.62935c0.02258,0.00376 0.05973,0.00706 0.11148,0.00988 0.05174,0.00282 0.10018,0.00423 0.14534,0.00423 0.1016,0 0.1858,-0.01411 0.25259,-0.04233 0.06679,-0.02822 0.10019,-0.08185 0.10019,-0.16087 0,-0.07714 -0.03058,-0.13029 -0.09173,-0.15945 -0.06114,-0.02917 -0.14064,-0.04375 -0.23847,-0.04375l-0.2794 0 0 0.39229z"/>
   <path id="_1454546241" class="fil1" d="M0.79281 6.62321l0 1.47602 -0.33867 0c0,-0.10724 0.00047,-0.21355 0.00141,-0.31891 0.00094,-0.10536 0.00188,-0.2032 0.00282,-0.29351 0.00095,-0.09031 0.00189,-0.16886 0.00283,-0.23566 0.00094,-0.06679 0.00141,-0.11618 0.00141,-0.14816 -0.05645,0.07337 -0.11477,0.15428 -0.17498,0.24271 -0.06021,0.08843 -0.11994,0.17686 -0.17921,0.26529 -0.05927,0.08843 -0.11524,0.17497 -0.16792,0.25964 -0.05268,0.08467 -0.09878,0.16087 -0.13829,0.2286l-0.30198 0 0 -1.47602 0.33585 0c0,0.10912 -0.00048,0.21308 -0.00142,0.31185 -0.00094,0.09878 -0.00141,0.18862 -0.00141,0.26953 0,0.0809 -0.00047,0.15146 -0.00141,0.21166 -0.00094,0.06021 -0.00141,0.10631 -0.00141,0.13829 0.05268,-0.0809 0.10725,-0.16416 0.16369,-0.24976 0.05644,-0.08561 0.11336,-0.16934 0.17074,-0.25118 0.05739,-0.08185 0.1143,-0.15946 0.17075,-0.23284 0.05644,-0.07337 0.11101,-0.13923 0.16369,-0.19755l0.29351 0z"/>
   <polygon id="_14545462412" class="fil1" points="2.46639,8.09923 2.1249,8.09923 2.1249,7.48116 1.56892,7.48116 1.56892,8.09923 1.22743,8.09923 1.22743,6.62321 1.56892,6.62321 1.56892,7.19894 2.1249,7.19894 2.1249,6.62321 2.46639,6.62321 "/>
   <path id="_145454624123" class="fil1" d="M3.4203 7.85934c0.10536,0 0.18533,-0.00564 0.23989,-0.01693l0 -0.37818c-0.01882,-0.00564 -0.0461,-0.01129 -0.08185,-0.01693 -0.03574,-0.00565 -0.07526,-0.00847 -0.11853,-0.00847 -0.03763,0 -0.07573,0.00282 -0.1143,0.00847 -0.03857,0.00564 -0.07338,0.01599 -0.10442,0.03104 -0.03105,0.01505 -0.05598,0.03622 -0.07479,0.0635 -0.01882,0.02728 -0.02822,0.06162 -0.02822,0.10301 0,0.08091 0.0254,0.13688 0.0762,0.16792 0.0508,0.03105 0.11947,0.04657 0.20602,0.04657zm-0.02822 -1.27282c0.11289,0 0.2079,0.01411 0.28504,0.04233 0.07714,0.02823 0.13876,0.06774 0.18486,0.11854 0.04609,0.0508 0.07902,0.11242 0.09877,0.18485 0.01976,0.07244 0.02964,0.15193 0.02964,0.23848l0 0.89464c-0.05268,0.01129 -0.13218,0.02493 -0.23848,0.04093 -0.1063,0.01599 -0.22625,0.02398 -0.35983,0.02398 -0.08843,0 -0.16934,-0.00846 -0.24271,-0.0254 -0.07338,-0.01693 -0.13594,-0.04421 -0.18768,-0.08184 -0.05174,-0.03763 -0.09219,-0.08655 -0.12136,-0.14676 -0.02916,-0.0602 -0.04374,-0.13452 -0.04374,-0.22295 0,-0.08467 0.01646,-0.15616 0.04939,-0.21449 0.03292,-0.05833 0.07761,-0.10583 0.13405,-0.14252 0.05645,-0.03669 0.12183,-0.06303 0.19615,-0.07902 0.07432,-0.016 0.15193,-0.02399 0.23283,-0.02399 0.03763,0 0.07714,0.00235 0.11853,0.00705 0.0414,0.00471 0.08561,0.0127 0.13265,0.02399l0 -0.05644c0,-0.03951 -0.00471,-0.07714 -0.01411,-0.11289 -0.00941,-0.03575 -0.02587,-0.06726 -0.04939,-0.09455 -0.02352,-0.02728 -0.05456,-0.04844 -0.09314,-0.0635 -0.03857,-0.01505 -0.08701,-0.02257 -0.14534,-0.02257 -0.07902,0 -0.15146,0.00564 -0.21731,0.01693 -0.06585,0.01129 -0.11947,0.02446 -0.16087,0.03951l-0.04233 -0.27658c0.04327,-0.01505 0.1063,-0.0301 0.18909,-0.04515 0.08278,-0.01505 0.17121,-0.02258 0.26529,-0.02258z"/>
   <path id="_1454546241234" class="fil1" d="M5.70066 6.62321l0 1.47602 -0.33867 0c0,-0.10724 0.00047,-0.21355 0.00141,-0.31891 0.00094,-0.10536 0.00188,-0.2032 0.00282,-0.29351 0.00095,-0.09031 0.00189,-0.16886 0.00283,-0.23566 0.00094,-0.06679 0.00141,-0.11618 0.00141,-0.14816 -0.05645,0.07337 -0.11477,0.15428 -0.17498,0.24271 -0.06021,0.08843 -0.11994,0.17686 -0.17921,0.26529 -0.05927,0.08843 -0.11524,0.17497 -0.16792,0.25964 -0.05268,0.08467 -0.09878,0.16087 -0.13829,0.2286l-0.30198 0 0 -1.47602 0.33585 0c0,0.10912 -0.00048,0.21308 -0.00142,0.31185 -0.00094,0.09878 -0.00141,0.18862 -0.00141,0.26953 0,0.0809 -0.00047,0.15146 -0.00141,0.21166 -0.00094,0.06021 -0.00141,0.10631 -0.00141,0.13829 0.05268,-0.0809 0.10725,-0.16416 0.16369,-0.24976 0.05644,-0.08561 0.11336,-0.16934 0.17074,-0.25118 0.05739,-0.08185 0.1143,-0.15946 0.17075,-0.23284 0.05644,-0.07337 0.11101,-0.13923 0.16369,-0.19755l0.29351 0zm-0.64347 -0.22013c-0.06021,0 -0.11618,-0.00847 -0.16792,-0.0254 -0.05174,-0.01694 -0.09831,-0.0414 -0.1397,-0.07338 -0.04139,-0.03199 -0.07526,-0.07103 -0.1016,-0.11712 -0.02634,-0.0461 -0.04233,-0.09831 -0.04798,-0.15664l0.24554 -0.06491c0.03198,0.13359 0.10254,0.20038 0.21166,0.20038 0.11101,0 0.18156,-0.06585 0.21167,-0.19756l0.24271 0.06491c-0.00753,0.05833 -0.02399,0.11054 -0.04939,0.15664 -0.0254,0.04609 -0.05833,0.08466 -0.09878,0.11571 -0.04045,0.03104 -0.08702,0.05503 -0.1397,0.07197 -0.05268,0.01693 -0.10818,0.0254 -0.16651,0.0254z"/>
   <path id="_14545462412345" class="fil1" d="M6.47959 7.13121c-0.00564,0.07902 -0.01129,0.16134 -0.01693,0.24694 -0.00565,0.08561 -0.01035,0.17075 -0.01411,0.25541 -0.00377,0.08467 -0.00753,0.16651 -0.01129,0.24554 -0.00376,0.07902 -0.00659,0.1524 -0.00847,0.22013l-0.3302 0c0.00377,-0.10913 0.00941,-0.22719 0.01694,-0.35419 0.00752,-0.127 0.01646,-0.25588 0.02681,-0.38664 0.01034,-0.13077 0.02116,-0.25918 0.03245,-0.38524 0.01129,-0.12605 0.02352,-0.24271 0.03669,-0.34995l0.29633 0c0.0715,0.11477 0.14394,0.24977 0.21731,0.40499 0.07338,0.15522 0.15523,0.33161 0.24554,0.52916 0.09407,-0.20131 0.17968,-0.38335 0.25682,-0.5461 0.07714,-0.16274 0.14581,-0.2921 0.20602,-0.38805l0.29916 0c0.01317,0.10724 0.02587,0.2239 0.0381,0.34995 0.01223,0.12606 0.02305,0.25447 0.03245,0.38524 0.00941,0.13076 0.01788,0.25964 0.0254,0.38664 0.00753,0.127 0.01317,0.24506 0.01694,0.35419l-0.33867 0c-0.00376,-0.15428 -0.00988,-0.31374 -0.01834,-0.47837 -0.00847,-0.16463 -0.01835,-0.32784 -0.02964,-0.48965 -0.02822,0.05644 -0.05879,0.11947 -0.09172,0.18909 -0.03293,0.06961 -0.06538,0.14017 -0.09737,0.21166 -0.03198,0.0715 -0.06303,0.14064 -0.09313,0.20744 -0.0301,0.06679 -0.05644,0.12559 -0.07902,0.17639l-0.254 0c-0.02258,-0.0508 -0.04939,-0.11007 -0.08044,-0.1778 -0.03104,-0.06774 -0.06255,-0.13735 -0.09454,-0.20885 -0.03198,-0.07149 -0.06444,-0.14158 -0.09737,-0.21025 -0.03292,-0.06868 -0.0635,-0.13124 -0.09172,-0.18768z"/>
   <path id="_145454624123456" class="fil1" d="M9.44857 6.62321c-0.1524,0.56068 -0.32926,1.06868 -0.53058,1.524 -0.03763,0.08466 -0.0762,0.1571 -0.11571,0.21731 -0.03951,0.06021 -0.08373,0.11007 -0.13264,0.14958 -0.04892,0.03951 -0.10349,0.0682 -0.16369,0.08607 -0.06021,0.01788 -0.12982,0.02682 -0.20885,0.02682 -0.05268,0 -0.10489,-0.00565 -0.15663,-0.01694 -0.05174,-0.01129 -0.09078,-0.02352 -0.11712,-0.03669l0.06209 -0.27375c0.06773,0.02634 0.13452,0.03951 0.20037,0.03951 0.08843,0 0.15758,-0.02117 0.20744,-0.0635 0.04986,-0.04233 0.0936,-0.10772 0.13123,-0.19615 -0.10724,-0.20696 -0.21025,-0.43274 -0.30903,-0.67733 -0.09878,-0.24459 -0.18674,-0.50423 -0.26388,-0.77893l0.36407 0c0.01881,0.07902 0.04186,0.16463 0.06914,0.25682 0.02728,0.09219 0.05692,0.1858 0.0889,0.28081 0.03199,0.09502 0.06585,0.18956 0.1016,0.28363 0.03575,0.09408 0.0715,0.18157 0.10724,0.26247 0.06021,-0.16745 0.11666,-0.34572 0.16934,-0.53481 0.05268,-0.18909 0.10066,-0.37206 0.14393,-0.54892l0.35278 0z"/>
   <polygon id="_145454552" class="fil1" points="5.12146,-2.49242 5.12146,-0.33873 6.77154,0.1515 6.73216,0.28548 5.03177,-0.2197 4.98146,-0.23464 4.98146,-0.28669 4.98146,-2.49242 "/>
   <path id="_145454480" class="fil1" d="M2.38152 0.92322c-0.34714,-0.73777 -0.3623,-1.54664 -0.10623,-2.25784 0.25614,-0.7114 0.78364,-1.32513 1.52169,-1.6724 0.73776,-0.34714 1.54663,-0.36231 2.25783,-0.10625 0.71139,0.25614 1.32511,0.78362 1.6724,1.52168 0.34714,0.73777 0.36231,1.54664 0.10625,2.25785 -0.25614,0.71139 -0.78362,1.32511 -1.52168,1.6724 -0.42976,0.20221 -0.88367,0.29178 -1.32837,0.2807 -0.43905,-0.01095 -0.8687,-0.1197 -1.25691,-0.31466l-0.28182 0.54993 -0.317 -0.56431 -0.31704 -0.5643 0.64322 -0.07219 0.64321 -0.07223 -0.27939 0.54518c0.36242,0.1818 0.76249,0.28319 1.17041,0.29336 0.41481,0.01033 0.83828,-0.07325 1.23931,-0.26194 0.68802,-0.32374 1.17977,-0.89591 1.41856,-1.55912 0.23884,-0.6634 0.22466,-1.41797 -0.09921,-2.10629 -0.32374,-0.68802 -0.89591,-1.17977 -1.55912,-1.41856 -0.66339,-0.23884 -1.41796,-0.22466 -2.10627,0.09921 -0.68803,0.32373 -1.17978,0.89589 -1.41857,1.55912 -0.23886,0.66339 -0.22468,1.41796 0.09919,2.10628l-0.18046 0.08438z"/>
   <g>
    <polygon id="_145454408" class="fil2" points="2.35564,3.98043 -0.69453,3.98043 -0.69137,1.02803 -1.30905,1.02493 0.92844,-0.14225 2.91416,1.07284 2.35295,1.06734 "/>
    <g>
     <rect id="_145454336" class="fil0" x="-0.00945265" y="1.34057" width="0.541345" height="0.706102"/>
     <rect id="_145454264" class="fil0" x="1.07324" y="1.34057" width="0.541345" height="0.706102"/>
    </g>
    <g>
     <rect id="_145454168" class="fil0" x="-0.00945265" y="2.61156" width="0.541345" height="0.706102"/>
     <rect id="_145454096" class="fil0" x="1.07324" y="2.61156" width="0.541345" height="0.706102"/>
    </g>
   </g>
  </g>
 </g>
</svg>
