<?xml version="1.0" encoding="UTF-8"?>
<!DOCTYPE svg PUBLIC "-//W3C//DTD SVG 1.1//EN" "http://www.w3.org/Graphics/SVG/1.1/DTD/svg11.dtd">
<!-- Creator: CorelDRAW -->
<svg xmlns="http://www.w3.org/2000/svg" xml:space="preserve" width="100%" height="100%" style="shape-rendering:geometricPrecision; text-rendering:geometricPrecision; image-rendering:optimizeQuality; fill-rule:evenodd; clip-rule:evenodd"
viewBox="0 0 15.8 16"
 xmlns:xlink="http://www.w3.org/1999/xlink">
 <defs>
  <style type="text/css">
   <![CDATA[
    .str1 {stroke:#1F1A17;stroke-width:0.1}
    .str0 {stroke:#AAABAE;stroke-width:0.2}
    .fil2 {fill:#1F1A17}
    .fil0 {fill:white}
    .fil1 {fill:#1F1A17;fill-rule:nonzero}
   ]]>
  </style>
 </defs>
 <g id="Слой_x0020_1">
  <metadata id="CorelCorpID_0Corel-Layer"/>
  <path class="fil0 str0" d="M1.40211 0.15497l12.9958 0c0.55967,0 1.27158,0.72909 1.27158,1.6191l0 12.4519c0,0.89001 -0.71234,1.6191 -1.27158,1.6191l-12.9958 0c-0.55924,0 -1.27158,-0.72859 -1.27158,-1.6191l0 -12.4519c0,-0.89051 0.71191,-1.6191 1.27158,-1.6191z"/>
  <path class="fil1" d="M4.84248 11.6495c0.02446,-0.0094 0.05456,-0.01881 0.09031,-0.02822 0.03575,-0.00941 0.07432,-0.01787 0.11571,-0.0254 0.04139,-0.00752 0.08514,-0.01364 0.13124,-0.01834 0.04609,-0.00471 0.09266,-0.00706 0.1397,-0.00706 0.0809,0 0.15804,0.00753 0.23142,0.02258 0.07337,0.01505 0.13735,0.03951 0.19191,0.07338 0.05456,0.03386 0.09831,0.07714 0.13123,0.12982 0.03293,0.05268 0.04939,0.11571 0.04939,0.18909 0,0.07902 -0.02164,0.14581 -0.06491,0.20038 -0.04327,0.05456 -0.09313,0.09501 -0.14958,0.12135 0.08467,0.03199 0.14958,0.07902 0.19473,0.14111 0.04516,0.06209 0.06774,0.14111 0.06774,0.23707 0,0.07714 -0.01647,0.14299 -0.04939,0.19755 -0.03293,0.05457 -0.07808,0.09925 -0.13547,0.13406 -0.05738,0.03481 -0.12465,0.06021 -0.20179,0.0762 -0.07714,0.01599 -0.16086,0.02399 -0.25117,0.02399 -0.10913,0 -0.21073,-0.00894 -0.3048,-0.02681 -0.09408,-0.01788 -0.1684,-0.03904 -0.22296,-0.0635l0.05927 -0.27658c0.03575,0.01505 0.09313,0.03246 0.17215,0.05221 0.07903,0.01976 0.17216,0.02963 0.2794,0.02963 0.20697,0 0.31045,-0.0602 0.31045,-0.18062 0,-0.04327 -0.00941,-0.07808 -0.02823,-0.10442 -0.01881,-0.02634 -0.04233,-0.04657 -0.07055,-0.06068 -0.02822,-0.01411 -0.06021,-0.02352 -0.09596,-0.02822 -0.03574,-0.0047 -0.07055,-0.00706 -0.10442,-0.00706l-0.28222 0 0 -0.25399 0.2794 0c0.06961,0 0.12935,-0.0127 0.17921,-0.0381 0.04986,-0.0254 0.07479,-0.07009 0.07479,-0.13406 0,-0.05268 -0.02399,-0.09454 -0.07197,-0.12559 -0.04798,-0.03104 -0.11524,-0.04657 -0.20179,-0.04657 -0.03763,0 -0.0762,0.00236 -0.11571,0.00706 -0.03951,0.0047 -0.07761,0.01082 -0.1143,0.01834 -0.03669,0.00753 -0.07008,0.01553 -0.10019,0.02399 -0.0301,0.00847 -0.05362,0.01647 -0.07055,0.02399l-0.06209 -0.27658z"/>
  <path id="1" class="fil1" d="M6.13788 12.801l0.16933 0c0.05833,-0.07714 0.10395,-0.16322 0.13688,-0.25823 0.03293,-0.09502 0.05691,-0.19474 0.07197,-0.29916 0.01505,-0.10442 0.02446,-0.21119 0.02822,-0.32032 0.00376,-0.10913 0.00658,-0.21543 0.00847,-0.31891l1.05833 0 0 1.19662 0.22578 0 0 0.69709 -0.3048 0 0 -0.41769 -1.0922 0 0 0.41769 -0.30198 0 0 -0.69709zm1.13171 0l0 -0.9144 -0.40076 0c-0.00376,0.07714 -0.00846,0.15569 -0.01411,0.23566 -0.00564,0.07996 -0.01599,0.15898 -0.03104,0.23706 -0.01505,0.07808 -0.03528,0.15428 -0.06068,0.2286 -0.0254,0.07432 -0.0588,0.14535 -0.10019,0.21308l0.60678 0z"/>
  <path id="12" class="fil1" d="M8.62426 12.8405c0.10536,0 0.18533,-0.00564 0.23989,-0.01693l0 -0.37818c-0.01882,-0.00564 -0.0461,-0.01129 -0.08185,-0.01693 -0.03574,-0.00565 -0.07526,-0.00847 -0.11853,-0.00847 -0.03763,0 -0.07573,0.00282 -0.1143,0.00847 -0.03857,0.00564 -0.07338,0.01599 -0.10442,0.03104 -0.03105,0.01505 -0.05598,0.03622 -0.07479,0.0635 -0.01882,0.02728 -0.02822,0.06162 -0.02822,0.10301 0,0.08091 0.0254,0.13688 0.0762,0.16792 0.0508,0.03105 0.11947,0.04657 0.20602,0.04657zm-0.02822 -1.27282c0.11289,0 0.2079,0.01411 0.28504,0.04233 0.07714,0.02823 0.13876,0.06774 0.18486,0.11854 0.04609,0.0508 0.07902,0.11242 0.09877,0.18485 0.01976,0.07244 0.02964,0.15193 0.02964,0.23848l0 0.89464c-0.05268,0.01129 -0.13218,0.02493 -0.23848,0.04093 -0.1063,0.01599 -0.22625,0.02398 -0.35983,0.02398 -0.08843,0 -0.16934,-0.00846 -0.24271,-0.0254 -0.07338,-0.01693 -0.13594,-0.04421 -0.18768,-0.08184 -0.05174,-0.03763 -0.09219,-0.08655 -0.12136,-0.14676 -0.02916,-0.0602 -0.04374,-0.13452 -0.04374,-0.22295 0,-0.08467 0.01646,-0.15616 0.04939,-0.21449 0.03292,-0.05833 0.07761,-0.10583 0.13405,-0.14252 0.05645,-0.03669 0.12183,-0.06303 0.19615,-0.07902 0.07432,-0.016 0.15193,-0.02399 0.23283,-0.02399 0.03763,0 0.07714,0.00235 0.11853,0.00705 0.0414,0.00471 0.08561,0.0127 0.13265,0.02399l0 -0.05644c0,-0.03951 -0.00471,-0.07714 -0.01411,-0.11289 -0.00941,-0.03575 -0.02587,-0.06726 -0.04939,-0.09455 -0.02352,-0.02728 -0.05456,-0.04844 -0.09314,-0.0635 -0.03857,-0.01505 -0.08701,-0.02257 -0.14534,-0.02257 -0.07902,0 -0.15146,0.00564 -0.21731,0.01693 -0.06585,0.01129 -0.11947,0.02446 -0.16087,0.03951l-0.04233 -0.27658c0.04327,-0.01505 0.1063,-0.0301 0.18909,-0.04515 0.08278,-0.01505 0.17121,-0.02258 0.26529,-0.02258z"/>
  <path id="123" class="fil1" d="M9.95635 12.1124c-0.00564,0.07902 -0.01129,0.16134 -0.01693,0.24694 -0.00565,0.08561 -0.01035,0.17075 -0.01411,0.25541 -0.00377,0.08467 -0.00753,0.16651 -0.01129,0.24554 -0.00376,0.07902 -0.00659,0.1524 -0.00847,0.22013l-0.3302 0c0.00377,-0.10913 0.00941,-0.22719 0.01694,-0.35419 0.00752,-0.127 0.01646,-0.25588 0.02681,-0.38664 0.01034,-0.13077 0.02116,-0.25918 0.03245,-0.38524 0.01129,-0.12605 0.02352,-0.24271 0.03669,-0.34995l0.29633 0c0.0715,0.11477 0.14394,0.24977 0.21731,0.40499 0.07338,0.15522 0.15523,0.33161 0.24554,0.52916 0.09407,-0.20131 0.17968,-0.38335 0.25682,-0.5461 0.07714,-0.16274 0.14581,-0.2921 0.20602,-0.38805l0.29916 0c0.01317,0.10724 0.02587,0.2239 0.0381,0.34995 0.01223,0.12606 0.02305,0.25447 0.03245,0.38524 0.00941,0.13076 0.01788,0.25964 0.0254,0.38664 0.00753,0.127 0.01317,0.24506 0.01694,0.35419l-0.33867 0c-0.00376,-0.15428 -0.00988,-0.31374 -0.01834,-0.47837 -0.00847,-0.16463 -0.01835,-0.32784 -0.02964,-0.48965 -0.02822,0.05644 -0.05879,0.11947 -0.09172,0.18909 -0.03293,0.06961 -0.06538,0.14017 -0.09737,0.21166 -0.03198,0.0715 -0.06303,0.14064 -0.09313,0.20744 -0.0301,0.06679 -0.05644,0.12559 -0.07902,0.17639l-0.254 0c-0.02258,-0.0508 -0.04939,-0.11007 -0.08044,-0.1778 -0.03104,-0.06774 -0.06255,-0.13735 -0.09454,-0.20885 -0.03198,-0.07149 -0.06444,-0.14158 -0.09737,-0.21025 -0.03292,-0.06868 -0.0635,-0.13124 -0.09172,-0.18768z"/>
  <polygon class="fil2 str1" points="6.7735,10.7244 7.24165,10.2626 7.24164,7.60984 8.13412,7.07301 8.16,5.1771 7.64239,4.81478 5.75312,4.86654 5.44256,5.1771 5.46844,7.11813 6.45192,7.66162 6.45191,9.22736 6.14133,9.52499 6.43896,9.86141 6.16719,10.1978 "/>
  <polygon class="fil0" points="5.899,5.59291 6.08932,5.33916 7.485,5.35502 7.72289,5.57705 7.64359,6.06871 7.42156,6.24317 6.80302,6.06871 6.2955,6.22731 5.9783,6.05285 "/>
  <path class="fil1" d="M7.8459 1.37216c0.63007,-0.08517 1.23519,0.09319 1.70405,0.45038 0.46876,0.35711 0.80134,0.89314 0.88654,1.52334 0.08517,0.63007 -0.09319,1.23519 -0.45038,1.70405 -0.35711,0.46876 -0.89313,0.80134 -1.52332,0.88654l-0.00866 0.00117 -0.0004 0c-0.62682,0.08226 -1.22839,-0.09609 -1.69501,-0.45155 -0.46875,-0.35711 -0.80133,-0.89313 -0.88653,-1.5233l-0.00117 -0.00865 0 -0.00031c-0.04782,-0.36418 -0.00781,-0.71963 0.10372,-1.04487 0.11086,-0.32332 0.29261,-0.61723 0.52907,-0.86056l-0.32337 -0.31926 0.48901 -0.10238 0.48901 -0.10242 -0.09616 0.49028 -0.09612 0.49028 -0.32044 -0.31637c-0.21513,0.22178 -0.38068,0.48995 -0.48194,0.78527 -0.10282,0.29985 -0.13924,0.62738 -0.09395,0.96241l5e-005 0.0004c0.07787,0.57522 0.3817,1.06465 0.80992,1.39088 0.42822,0.32621 0.98089,0.48912 1.55639,0.41132l0.00047 -6e-005c0.57521,-0.07789 1.06461,-0.38171 1.39083,-0.80992 0.32622,-0.42821 0.48912,-0.98089 0.41132,-1.55639 -0.07779,-0.57542 -0.38166,-1.065 -0.80998,-1.3913 -0.42821,-0.32622 -0.98089,-0.48912 -1.55639,-0.41132l-0.02656 -0.19766z"/>
  <polygon class="fil1" points="8.10217,1.81192 8.10217,3.46249 9.36439,3.83749 9.32501,3.97147 8.01248,3.58152 7.96217,3.56658 7.96217,3.51453 7.96217,1.81192 "/>
 </g>
</svg>
